<svg width="1656" height="1656" viewBox="0 0 1656 1656" fill="none" xmlns="http://www.w3.org/2000/svg">
    <g clip-path="url(#clip0_12_1005)">
        <rect width="1656" height="1656" fill="#6E30FF"/>
        <path d="M1596.5 819C1596.5 1243.43 1252.43 1587.5 828 1587.5C403.569 1587.5 59.5 1243.43 59.5 819C59.5 394.569 403.569 50.5 828 50.5C1252.43 50.5 1596.5 394.569 1596.5 819Z" stroke="#814AFF" stroke-width="119"/>
        <circle cx="828" cy="819" r="1115" stroke="#814AFF" stroke-width="196"/>
        <path d="M1061.75 28.1939C1073.97 19.9934 1088.94 16.9524 1103.39 19.7329C1117.84 22.5134 1130.61 30.8903 1138.92 43.0399C1141.53 46.9307 1145.58 49.6234 1150.18 50.5257C1154.78 51.4281 1159.55 50.4662 1163.44 47.8517C1167.33 45.2371 1170.03 41.1841 1170.93 36.5841C1171.83 31.9842 1170.87 27.2142 1168.26 23.3235C1161.63 13.2719 1153.07 4.63656 1143.08 -2.08167C1133.08 -8.7999 1121.86 -13.4673 1110.05 -15.8132C1098.24 -18.1591 1086.08 -18.1367 1074.28 -15.7474C1062.48 -13.3581 1051.27 -8.64946 1041.3 -1.89454C1031.33 4.86039 1022.81 13.5271 1016.21 23.603C1009.62 33.6789 1005.1 44.9632 1002.9 56.8017C1000.7 68.6401 1000.88 80.7971 1003.42 92.5672C1005.95 104.337 1010.8 115.486 1017.68 125.368C1020.3 129.259 1024.37 131.948 1028.97 132.845C1033.58 133.742 1038.35 132.773 1042.24 130.15C1046.13 127.528 1048.82 123.468 1049.72 118.862C1050.61 114.257 1049.64 109.484 1047.02 105.593C1038.72 93.3731 1035.61 78.3579 1038.37 63.8456C1041.13 49.3332 1049.54 36.5105 1061.75 28.1939Z" fill="#3FE2E0"/>
        <path d="M1397.81 202.845C1394.17 202.247 1390.43 202.925 1387.22 204.763C1384.01 206.601 1381.54 209.488 1380.21 212.938L1330.39 340.977L1194.55 320.439C1192.45 320.123 1190.31 320.223 1188.26 320.734C1186.2 321.244 1184.26 322.154 1182.56 323.413C1180.85 324.672 1179.41 326.254 1178.32 328.07C1177.22 329.885 1176.5 331.898 1176.18 333.994C1175.86 336.09 1175.96 338.228 1176.47 340.286C1176.98 342.343 1177.9 344.28 1179.15 345.985C1180.41 347.691 1182 349.132 1183.81 350.226C1185.63 351.32 1187.64 352.045 1189.74 352.361L1338.31 374.777C1341.96 375.352 1345.69 374.665 1348.89 372.829C1352.09 370.994 1354.57 368.12 1355.92 364.684L1405.68 236.644L1541.58 257.182C1545.23 257.757 1548.96 257.07 1552.16 255.235C1555.36 253.399 1557.84 250.526 1559.18 247.089L1609 119.05L1744.85 139.529C1748.47 140.116 1752.19 139.41 1755.35 137.534C1758.25 135.846 1760.55 133.297 1761.94 130.241C1763.32 127.185 1763.72 123.774 1763.07 120.482C1762.43 117.19 1760.77 114.181 1758.33 111.873C1755.9 109.566 1752.81 108.074 1749.48 107.607L1600.91 85.1912C1597.26 84.6273 1593.53 85.3192 1590.34 87.1533C1587.14 88.9873 1584.66 91.8545 1583.3 95.2842L1533.78 223.324L1397.81 202.845Z" fill="#3FE2E0"/>
        <path d="M1165.91 1062.14C1183.61 1062.14 1200.91 1056.89 1215.63 1047.05C1230.34 1037.22 1241.81 1023.25 1248.58 1006.89C1255.36 990.542 1257.13 972.549 1253.68 955.191C1250.22 937.832 1241.7 921.887 1229.19 909.372C1216.67 896.857 1200.73 888.334 1183.37 884.881C1166.01 881.428 1148.02 883.2 1131.66 889.973C1115.31 896.746 1101.34 908.216 1091.5 922.932C1081.67 937.648 1076.42 954.95 1076.42 972.649C1076.45 996.373 1085.89 1019.12 1102.67 1035.89C1119.44 1052.67 1142.19 1062.1 1165.91 1062.14ZM1165.91 915.436C1177.22 915.436 1188.29 918.791 1197.7 925.078C1207.1 931.364 1214.44 940.3 1218.77 950.754C1223.1 961.208 1224.23 972.712 1222.02 983.81C1219.82 994.909 1214.37 1005.1 1206.36 1013.1C1198.36 1021.11 1188.17 1026.55 1177.07 1028.76C1165.97 1030.97 1154.47 1029.84 1144.02 1025.51C1133.56 1021.18 1124.62 1013.84 1118.34 1004.43C1112.05 995.026 1108.7 983.964 1108.7 972.649C1108.73 957.484 1114.77 942.95 1125.49 932.227C1136.21 921.504 1150.74 915.467 1165.91 915.436Z" fill="#3FE2E0"/>
        <path d="M1506 1161.96C1503.36 1162.99 1501.04 1164.7 1499.27 1166.92C1497.5 1169.13 1496.34 1171.77 1495.91 1174.58L1470.21 1342.05C1469.75 1344.86 1470.05 1347.74 1471.07 1350.4C1472.08 1353.06 1473.79 1355.41 1476.01 1357.19C1478.22 1358.98 1480.88 1360.15 1483.69 1360.58C1486.51 1361.01 1489.39 1360.69 1492.04 1359.65L1649.77 1298.04C1652.41 1297.03 1654.74 1295.33 1656.52 1293.13C1658.29 1290.92 1659.44 1288.28 1659.86 1285.48C1660.3 1282.67 1659.99 1279.8 1658.95 1277.15C1657.92 1274.5 1656.21 1272.17 1653.99 1270.4L1521.73 1164.78C1519.59 1162.96 1517.01 1161.74 1514.25 1161.25C1511.48 1160.75 1508.64 1161 1506 1161.96ZM1612.21 1277.97L1506.59 1319.05L1523.72 1206.85L1612.21 1277.97Z" fill="#3FE2E0"/>
        <path d="M1022.08 1348.55C1017.73 1346.89 1012.89 1347.03 1008.63 1348.93C1004.37 1350.83 1001.04 1354.35 999.374 1358.7C994.114 1372.52 983.579 1383.69 970.088 1389.74C956.596 1395.79 941.252 1396.24 927.432 1390.98C913.612 1385.72 902.448 1375.18 896.396 1361.69C890.343 1348.2 889.898 1332.85 895.158 1319.03C895.979 1316.87 896.366 1314.57 896.297 1312.26C896.228 1309.95 895.704 1307.67 894.756 1305.57C893.808 1303.46 892.454 1301.56 890.771 1299.97C889.089 1298.38 887.109 1297.15 884.948 1296.33C880.582 1294.67 875.738 1294.81 871.479 1296.73C867.22 1298.64 863.896 1302.17 862.239 1306.54C858 1317.71 856.005 1329.61 856.365 1341.55C856.725 1353.5 859.435 1365.26 864.339 1376.15C869.243 1387.05 876.245 1396.88 884.946 1405.07C893.648 1413.26 903.877 1419.66 915.051 1423.9C926.224 1428.13 938.124 1430.13 950.069 1429.77C962.014 1429.41 973.771 1426.7 984.669 1421.8C995.567 1416.89 1005.39 1409.89 1013.58 1401.19C1021.77 1392.49 1028.17 1382.26 1032.41 1371.08C1034.01 1366.72 1033.82 1361.91 1031.88 1357.69C1029.95 1353.47 1026.43 1350.19 1022.08 1348.55Z" fill="#3FE2E0"/>
        <path d="M747.051 794.554C746.098 790.381 743.534 786.755 739.916 784.468C736.299 782.181 731.923 781.419 727.745 782.348L671.941 794.847L659.442 739.042C658.975 736.973 658.106 735.016 656.884 733.283C655.661 731.55 654.109 730.075 652.317 728.941C650.524 727.808 648.526 727.039 646.436 726.678C644.346 726.317 642.205 726.371 640.136 726.837C638.067 727.303 636.11 728.172 634.377 729.395C632.643 730.617 631.168 732.169 630.034 733.962C628.901 735.755 628.132 737.753 627.771 739.843C627.41 741.933 627.464 744.074 627.931 746.143L640.429 801.947L584.625 814.446C582.556 814.909 580.598 815.774 578.863 816.993C577.129 818.212 575.651 819.76 574.515 821.55C573.379 823.34 572.606 825.337 572.242 827.425C571.877 829.514 571.927 831.654 572.389 833.723C572.852 835.792 573.718 837.749 574.937 839.484C576.156 841.219 577.704 842.696 579.494 843.832C581.284 844.968 583.28 845.741 585.369 846.105C587.457 846.47 589.597 846.42 591.666 845.957L647.529 833.459L660.028 889.263C660.962 893.442 663.518 897.078 667.133 899.373C670.748 901.667 675.126 902.432 679.305 901.498C683.484 900.564 687.12 898.009 689.414 894.394C691.709 890.779 692.473 886.4 691.539 882.222L678.982 826.358L734.845 813.859C739.018 812.907 742.644 810.342 744.931 806.724C747.218 803.107 747.98 798.731 747.051 794.554Z" fill="#3FE2E0"/>
        <path d="M190.459 220.759C188.321 221.139 186.283 221.948 184.465 223.135C182.647 224.322 181.088 225.864 179.88 227.668C178.672 229.472 177.84 231.501 177.435 233.634C177.03 235.767 177.059 237.96 177.522 240.081C177.984 242.202 178.869 244.208 180.125 245.979C181.38 247.751 182.981 249.25 184.83 250.388C186.679 251.526 188.738 252.279 190.885 252.603C193.032 252.926 195.222 252.813 197.324 252.27C208.858 249.462 218.837 242.256 225.13 232.19C231.422 222.124 233.529 209.997 231.001 198.398C228.473 186.8 221.51 176.649 211.599 170.115C201.689 163.581 189.616 161.181 177.96 163.428C168.237 165.398 159.003 169.282 150.795 174.854C142.588 180.425 135.57 187.574 130.151 195.883C124.731 204.192 121.019 213.496 119.228 223.253C117.438 233.01 117.606 243.026 119.723 252.718C121.839 262.41 125.862 271.584 131.557 279.707C137.252 287.829 144.506 294.738 152.896 300.032C161.286 305.325 170.644 308.897 180.428 310.539C190.211 312.182 200.223 311.863 209.882 309.6C236.542 303.392 259.687 286.938 274.31 263.797C288.933 240.656 293.858 212.689 288.02 185.945C282.182 159.201 266.051 135.83 243.115 120.887C220.18 105.945 192.284 100.632 165.461 106.098C163.324 106.479 161.285 107.287 159.467 108.474C157.649 109.661 156.09 111.203 154.882 113.007C153.674 114.811 152.842 116.84 152.437 118.973C152.032 121.106 152.062 123.299 152.524 125.42C152.986 127.541 153.871 129.548 155.127 131.319C156.383 133.09 157.984 134.589 159.832 135.727C161.681 136.865 163.741 137.619 165.887 137.942C168.034 138.265 170.224 138.152 172.326 137.609C190.955 133.539 210.438 137.037 226.488 147.332C242.538 157.626 253.842 173.875 257.912 192.504C261.981 211.133 258.484 230.616 248.189 246.666C237.894 262.716 221.645 274.019 203.016 278.089C197.556 279.284 191.915 279.391 186.414 278.405C180.913 277.419 175.66 275.36 170.955 272.344C166.249 269.328 162.184 265.414 158.991 260.827C155.799 256.24 153.541 251.069 152.346 245.61C151.152 240.15 151.044 234.509 152.03 229.007C153.015 223.506 155.076 218.253 158.092 213.548C161.108 208.843 165.021 204.778 169.608 201.585C174.195 198.392 179.365 196.134 184.825 194.94C186.52 194.554 188.275 194.507 189.989 194.799C191.703 195.092 193.342 195.72 194.813 196.646C196.285 197.572 197.558 198.779 198.563 200.198C199.568 201.617 200.284 203.22 200.669 204.915C201.054 206.61 201.102 208.365 200.809 210.079C200.516 211.792 199.889 213.432 198.962 214.903C198.036 216.374 196.829 217.649 195.41 218.653C193.991 219.658 192.388 220.373 190.693 220.759H190.459Z" fill="#3FE2E0"/>
        <path d="M277.084 1281.07C278.66 1284.37 281.315 1287.04 284.612 1288.63C287.909 1290.22 291.65 1290.64 295.216 1289.81L429.183 1259.01L488.626 1382.88C490.478 1386.77 493.799 1389.77 497.859 1391.21C501.92 1392.65 506.387 1392.42 510.278 1390.57C514.169 1388.72 517.164 1385.39 518.606 1381.33C520.048 1377.27 519.818 1372.8 517.966 1368.91L452.889 1233.42C451.313 1230.12 448.657 1227.45 445.361 1225.86C442.064 1224.27 438.323 1223.85 434.757 1224.68L300.791 1255.49L241.113 1131.61C239.537 1128.31 236.881 1125.64 233.585 1124.05C230.288 1122.46 226.547 1122.04 222.981 1122.87L89.0729 1153.68L29.865 1030.04C28.013 1026.15 24.6911 1023.15 20.6304 1021.71C16.5697 1020.27 12.1032 1020.5 8.21244 1022.35C4.32172 1024.2 1.32553 1027.52 -0.116077 1031.58C-1.55768 1035.65 -1.32697 1040.11 0.525019 1044L65.5422 1179.5C67.118 1182.8 69.7737 1185.47 73.0706 1187.06C76.3675 1188.65 80.1087 1189.06 83.6748 1188.24L217.582 1157.43L277.084 1281.07Z" fill="#3FE2E0"/>
        <path d="M1575.08 1709.08C1609.65 1705.09 1648.9 1700.51 1684.17 1657.85C1685.52 1656.22 1686.54 1654.33 1687.17 1652.31C1687.79 1650.28 1688.01 1648.15 1687.81 1646.04C1687.61 1643.93 1687 1641.87 1686.01 1640C1685.01 1638.13 1683.66 1636.46 1682.03 1635.11C1680.4 1633.76 1678.51 1632.74 1676.48 1632.12C1674.46 1631.49 1672.33 1631.27 1670.22 1631.47C1668.11 1631.67 1666.05 1632.29 1664.18 1633.28C1662.3 1634.27 1660.64 1635.62 1659.29 1637.25C1632.3 1669.94 1604.01 1673.22 1571.27 1676.98C1536.65 1681.03 1497.45 1685.55 1462.18 1728.27C1426.92 1770.99 1429.85 1810.42 1432.43 1845.04C1434.9 1877.84 1437.01 1906.13 1410.02 1938.93C1383.03 1971.73 1354.74 1974.84 1322 1978.65C1287.38 1982.64 1248.18 1987.22 1212.91 2029.88C1211.56 2031.52 1210.54 2033.4 1209.92 2035.43C1209.29 2037.45 1209.08 2039.58 1209.27 2041.69C1209.47 2043.81 1210.09 2045.86 1211.08 2047.73C1212.07 2049.61 1213.42 2051.27 1215.05 2052.62C1216.69 2053.97 1218.57 2054.99 1220.6 2055.61C1222.63 2056.24 1224.76 2056.46 1226.87 2056.26C1228.98 2056.06 1231.03 2055.45 1232.9 2054.45C1234.78 2053.46 1236.44 2052.11 1237.79 2050.48C1264.79 2017.73 1293.01 2014.51 1325.81 2010.69C1360.38 2006.7 1399.57 2002.18 1434.9 1959.47C1470.22 1916.75 1467.23 1877.31 1464.65 1842.69C1462.18 1809.89 1460.07 1781.55 1487.06 1748.8C1514.06 1716.06 1542.4 1712.83 1575.08 1709.08Z" fill="#3FE2E0"/>
        <path d="M67.8306 624.5L51.9873 746.672C51.7073 748.773 51.8451 750.908 52.3934 752.955C52.9417 755.003 53.8896 756.921 55.182 758.601C56.4745 760.281 58.0863 761.688 59.9247 762.743C61.7631 763.797 63.792 764.478 65.8944 764.745L188.125 780.589C192.365 781.138 196.65 779.982 200.039 777.375C203.428 774.767 205.643 770.921 206.198 766.682L222.042 644.452C222.574 640.205 221.404 635.92 218.788 632.534C216.171 629.147 212.319 626.934 208.076 626.378L85.9045 610.593C83.8037 610.313 81.6683 610.451 79.621 611C77.5738 611.548 75.6548 612.495 73.9751 613.788C72.2954 615.08 70.8879 616.692 69.8334 618.531C68.7789 620.369 68.0982 622.398 67.8306 624.5ZM97.7573 644.628L187.948 656.364L176.212 746.555L86.0213 734.819L97.7573 644.628Z" fill="#3FE2E0"/>
        <path d="M23.9944 1694C24.7763 1695.97 25.9395 1697.76 27.4169 1699.28C28.8942 1700.79 30.6564 1702.01 32.603 1702.84C34.5495 1703.67 36.642 1704.12 38.7596 1704.14C40.8773 1704.16 42.9783 1703.77 44.9428 1702.98L159.311 1657.15C161.281 1656.36 163.076 1655.19 164.594 1653.71C166.112 1652.22 167.323 1650.46 168.156 1648.51C168.99 1646.55 169.432 1644.46 169.454 1642.34C169.477 1640.21 169.08 1638.11 168.288 1636.14L122.46 1521.77C120.868 1517.81 117.768 1514.64 113.841 1512.95C109.914 1511.27 105.479 1511.21 101.51 1512.79L-12.8569 1558.62C-16.8366 1560.22 -20.0222 1563.32 -21.7162 1567.26C-23.4101 1571.2 -23.4736 1575.65 -21.8931 1579.63L23.9944 1694ZM98.5177 1548.76L132.376 1633.21L47.4664 1667L13.6079 1582.56L98.5177 1548.76Z" fill="#3FE2E0"/>
        <path d="M1672.55 683.003C1671.22 679.067 1668.43 675.795 1664.75 673.867C1661.07 671.939 1656.79 671.504 1652.8 672.653C1648.8 673.803 1645.41 676.447 1643.32 680.036C1641.23 683.626 1640.6 687.883 1641.57 691.923C1646.83 710.248 1644.59 729.913 1635.35 746.59C1626.12 763.268 1610.63 775.592 1592.31 780.852C1573.98 786.113 1554.32 783.878 1537.64 774.639C1520.96 765.401 1508.64 749.916 1503.38 731.591C1500.26 720.743 1501.59 709.104 1507.06 699.232C1512.53 689.361 1521.69 682.067 1532.54 678.955C1543.39 675.842 1555.03 677.166 1564.9 682.635C1574.77 688.105 1582.06 697.271 1585.18 708.119C1586.14 711.488 1585.73 715.103 1584.03 718.167C1582.33 721.232 1579.48 723.496 1576.11 724.461C1572.74 725.426 1569.13 725.013 1566.06 723.312C1563 721.612 1560.73 718.764 1559.77 715.395C1558.58 711.279 1555.81 707.801 1552.07 705.726C1548.32 703.652 1543.9 703.151 1539.79 704.334C1535.67 705.516 1532.19 708.286 1530.12 712.033C1528.04 715.78 1527.54 720.198 1528.73 724.314C1532.06 735.909 1539.86 745.705 1550.41 751.549C1560.96 757.392 1573.41 758.804 1585 755.473C1596.59 752.143 1606.39 744.343 1612.23 733.79C1618.08 723.236 1619.49 710.794 1616.16 699.199C1610.29 680.625 1597.4 665.074 1580.24 655.851C1563.09 646.629 1543.01 644.462 1524.28 649.811C1505.54 655.161 1489.64 667.605 1479.94 684.498C1470.24 701.392 1467.51 721.402 1472.33 740.275C1480.07 766.693 1497.96 788.972 1522.08 802.244C1546.19 815.515 1574.58 818.699 1601.04 811.099C1627.5 803.5 1649.88 785.735 1663.28 761.688C1676.67 737.641 1680.01 709.267 1672.55 682.769V683.003Z" fill="#3FE2E0"/>
        <path d="M479.003 58.9591C476.364 59.9946 474.042 61.7047 472.271 63.9186C470.5 66.1326 469.341 68.7729 468.91 71.5753L443.208 239.048C442.752 241.86 443.048 244.742 444.067 247.402C445.085 250.062 446.79 252.406 449.007 254.194C451.224 255.982 453.875 257.151 456.691 257.583C459.506 258.015 462.386 257.694 465.037 256.652L622.769 195.038C625.414 194.028 627.743 192.333 629.517 190.126C631.29 187.919 632.444 185.281 632.862 182.48C633.298 179.673 632.985 176.799 631.955 174.151C630.925 171.503 629.213 169.174 626.994 167.4L494.73 61.7756C492.59 59.9604 490.008 58.7438 487.246 58.2491C484.484 57.7544 481.64 57.9994 479.003 58.9591ZM585.214 174.969L479.59 216.045L496.724 103.849L585.214 174.969Z" fill="#3FE2E0"/>
        <path fill-rule="evenodd" clip-rule="evenodd" d="M1403.03 1720.31C1394.62 1654.16 1372.78 1590.42 1338.83 1533.02C1362.75 1525.99 1383.94 1511.8 1399.57 1492.37C1460.57 1594.98 1488.09 1714.04 1478.32 1833.01C1456.41 1820.66 1431.64 1814.29 1406.5 1814.53C1408.32 1783.09 1407.16 1751.54 1403.03 1720.31Z" fill="#1E1E1E"/>
        <path fill-rule="evenodd" clip-rule="evenodd" d="M1291.96 1218.25C1258.56 1218.25 1225.91 1228.16 1198.14 1246.72C1170.38 1265.28 1148.74 1291.65 1135.97 1322.52C1123.2 1353.38 1119.87 1387.33 1126.4 1420.09C1132.93 1452.84 1149.03 1482.92 1172.67 1506.52C1196.3 1530.12 1226.4 1546.18 1259.16 1552.67C1291.93 1559.15 1325.88 1555.78 1356.72 1542.97C1387.56 1530.15 1413.91 1508.48 1432.43 1480.69C1450.96 1452.89 1460.82 1420.23 1460.77 1386.83C1460.77 1364.68 1456.4 1342.74 1447.92 1322.27C1439.43 1301.8 1426.99 1283.2 1411.31 1267.54C1395.63 1251.89 1377.02 1239.47 1356.54 1231.02C1336.06 1222.56 1314.11 1218.22 1291.96 1218.25Z" fill="#1E1E1E"/>
        <path fill-rule="evenodd" clip-rule="evenodd" d="M1291.95 1280.83C1270.93 1280.84 1250.39 1287.07 1232.91 1298.75C1215.44 1310.44 1201.82 1327.04 1193.79 1346.47C1185.75 1365.89 1183.66 1387.26 1187.78 1407.88C1191.9 1428.49 1202.04 1447.42 1216.92 1462.27C1231.8 1477.11 1250.75 1487.21 1271.37 1491.29C1291.99 1495.36 1313.36 1493.22 1332.77 1485.15C1352.17 1477.07 1368.75 1463.42 1380.4 1445.92C1392.04 1428.42 1398.23 1407.86 1398.19 1386.84C1398.12 1358.7 1386.91 1331.74 1366.99 1311.87C1347.07 1292 1320.09 1280.83 1291.95 1280.83Z" fill="#74DB3F"/>
        <path fill-rule="evenodd" clip-rule="evenodd" d="M261.271 1720.31C269.68 1654.16 291.528 1590.42 325.472 1533.02C301.553 1525.99 280.359 1511.8 264.735 1492.37C203.738 1594.98 176.213 1714.04 185.984 1833.01C207.891 1820.66 232.66 1814.29 257.807 1814.53C255.981 1783.09 257.141 1751.54 261.271 1720.31Z" fill="#1E1E1E"/>
        <path fill-rule="evenodd" clip-rule="evenodd" d="M372.584 1218.25C405.983 1218.25 438.631 1228.16 466.398 1246.72C494.165 1265.28 515.802 1291.65 528.573 1322.52C541.343 1353.38 544.673 1387.33 538.14 1420.09C531.608 1452.84 515.506 1482.92 491.874 1506.52C468.241 1530.12 438.139 1546.18 405.377 1552.67C372.615 1559.15 338.664 1555.78 307.821 1542.97C276.978 1530.15 250.628 1508.48 232.106 1480.69C213.584 1452.89 203.721 1420.23 203.767 1386.83C203.767 1364.68 208.136 1342.74 216.622 1322.27C225.109 1301.8 237.548 1283.2 253.227 1267.54C268.906 1251.89 287.518 1239.47 307.998 1231.02C328.479 1222.56 350.426 1218.22 372.584 1218.25Z" fill="#1E1E1E"/>
        <path fill-rule="evenodd" clip-rule="evenodd" d="M372.583 1280.83C393.604 1280.84 414.152 1287.07 431.626 1298.75C449.101 1310.44 462.717 1327.04 470.751 1346.47C478.784 1365.89 480.875 1387.26 476.757 1407.88C472.639 1428.49 462.498 1447.42 447.618 1462.27C432.738 1477.11 413.788 1487.21 393.166 1491.29C372.544 1495.36 351.177 1493.22 331.769 1485.15C312.362 1477.07 295.787 1463.42 284.142 1445.92C272.497 1428.42 266.305 1407.86 266.351 1386.84C266.412 1358.7 277.631 1331.74 297.547 1311.87C317.463 1292 344.449 1280.83 372.583 1280.83Z" fill="#74DB3F"/>
        <path fill-rule="evenodd" clip-rule="evenodd" d="M372.582 1348.96C380.063 1349.01 387.362 1351.27 393.56 1355.46C399.758 1359.65 404.577 1365.58 407.408 1372.5C410.239 1379.42 410.956 1387.03 409.468 1394.36C407.981 1401.7 404.356 1408.42 399.05 1413.7C393.744 1418.97 386.995 1422.55 379.655 1424C372.314 1425.44 364.711 1424.68 357.804 1421.8C350.897 1418.93 344.995 1414.08 340.844 1407.85C336.692 1401.63 334.477 1394.32 334.477 1386.84C334.538 1376.77 338.579 1367.14 345.719 1360.04C352.858 1352.94 362.516 1348.96 372.582 1348.96Z" fill="#1E1E1E"/>
        <path fill-rule="evenodd" clip-rule="evenodd" d="M1175.79 1383.14V1819.61C1177.03 1863.66 1169.5 1907.52 1153.64 1948.63C1137.78 1989.74 1113.91 2027.29 1083.41 2059.1C1016.35 2123.79 926.472 2159.39 833.305 2158.17C648.554 2158.17 489.667 2030.69 489.667 1819.61V1383.14C488.405 1339.09 495.922 1295.23 511.782 1254.11C527.641 1213 551.526 1175.45 582.043 1143.66C649.158 1078.91 739.135 1043.3 832.381 1044.58C1017.13 1044.58 1175.79 1172.06 1175.79 1383.14Z" fill="#1E1E1E"/>
        <path fill-rule="evenodd" clip-rule="evenodd" d="M1113.67 1383.14V1819.62C1113.67 2181.04 550.869 2181.04 550.869 1819.62V1383.14C550.869 1021.49 1113.67 1021.49 1113.67 1383.14Z" fill="#9B7EDE"/>
        <path fill-rule="evenodd" clip-rule="evenodd" d="M1291.95 1334.18V1649.41C1291.95 2100.9 372.583 2100.9 372.583 1649.41V1334.18C372.583 882.924 1291.95 882.924 1291.95 1334.18Z" fill="#1E1E1E"/>
        <path fill-rule="evenodd" clip-rule="evenodd" d="M1224.52 1334.18V1649.41C1224.52 2011.06 439.324 2011.06 439.324 1649.41V1334.18C439.324 972.759 1224.52 972.759 1224.52 1334.18Z" fill="#53C806"/>
        <path fill-rule="evenodd" clip-rule="evenodd" d="M372.587 1304.39C346.479 1304.34 321.272 1313.93 301.797 1331.32C282.321 1348.71 269.948 1372.67 267.047 1398.61C266.811 1394.69 266.811 1390.76 267.047 1386.84C267.108 1358.7 278.328 1331.74 298.243 1311.87C318.159 1292 345.145 1280.83 373.279 1280.83H376.743C376.743 1288.69 374.434 1296.31 373.741 1303.93H372.355" fill="#3E9D00"/>
        <path fill-rule="evenodd" clip-rule="evenodd" d="M271.894 1376.44C279.069 1397.45 292.632 1415.69 310.687 1428.61C328.741 1441.53 350.383 1448.48 372.583 1448.5V1493.07C346.44 1493.11 321.204 1483.49 301.723 1466.05C282.242 1448.62 269.892 1424.6 267.044 1398.61C267.888 1390.77 269.512 1383.04 271.894 1375.52" fill="#3E9D00"/>
        <path fill-rule="evenodd" clip-rule="evenodd" d="M372.582 1339.03V1348.96C363.349 1348.89 354.413 1352.22 347.472 1358.3C340.532 1364.39 336.071 1372.82 334.939 1381.98C334.825 1380.37 334.825 1378.75 334.939 1377.13C334.939 1372.13 335.924 1367.18 337.839 1362.55C339.754 1357.93 342.561 1353.73 346.1 1350.19C349.638 1346.65 353.839 1343.84 358.462 1341.93C363.085 1340.01 368.04 1339.03 373.044 1339.03" fill="#3E9D00"/>
        <path fill-rule="evenodd" clip-rule="evenodd" d="M334.707 1390.76C335.731 1400.09 340.162 1408.71 347.152 1414.98C354.141 1421.24 363.196 1424.71 372.582 1424.71V1432.79C362.516 1432.79 352.858 1428.81 345.719 1421.71C338.579 1414.62 334.538 1404.98 334.477 1394.92C334.477 1393.53 334.477 1392.15 334.477 1390.76" fill="#3E9D00"/>
        <path fill-rule="evenodd" clip-rule="evenodd" d="M1224.52 1527.71V1649.41C1224.52 2011.06 439.324 2011.06 439.324 1649.41V1527.71C439.324 1889.13 1224.52 1889.13 1224.52 1527.71Z" fill="#3E9D00"/>
        <path fill-rule="evenodd" clip-rule="evenodd" d="M645.097 1370.83H1019.61C1052.72 1370.83 1084.47 1382 1107.89 1401.89C1131.3 1421.77 1144.45 1448.75 1144.45 1476.87C1144.45 1505 1131.3 1531.97 1107.89 1551.86C1084.47 1571.74 1052.72 1582.92 1019.61 1582.92H645.097C611.987 1582.92 580.234 1571.74 556.823 1551.86C533.411 1531.97 520.258 1505 520.258 1476.87C520.258 1448.75 533.411 1421.77 556.823 1401.89C580.234 1382 611.987 1370.83 645.097 1370.83Z" fill="#3E9D00"/>
        <path fill-rule="evenodd" clip-rule="evenodd" d="M645.097 1420.83H1019.61C1052.72 1420.83 1084.47 1432 1107.89 1451.89C1131.3 1471.78 1144.45 1498.75 1144.45 1526.88C1144.45 1555 1131.3 1581.97 1107.89 1601.86C1084.47 1621.75 1052.72 1632.92 1019.61 1632.92H645.097C611.987 1632.92 580.234 1621.75 556.823 1601.86C533.411 1581.97 520.258 1555 520.258 1526.88C520.258 1498.75 533.411 1471.78 556.823 1451.89C580.234 1432 611.987 1420.83 645.097 1420.83Z" fill="#74DB3F"/>
        <path fill-rule="evenodd" clip-rule="evenodd" d="M645.097 1398.42H1019.61C1052.72 1398.42 1084.47 1409.59 1107.89 1429.48C1131.3 1449.36 1144.45 1476.34 1144.45 1504.46C1144.45 1532.58 1131.3 1559.56 1107.89 1579.44C1084.47 1599.33 1052.72 1610.5 1019.61 1610.5H645.097C611.987 1610.5 580.234 1599.33 556.823 1579.44C533.411 1559.56 520.258 1532.58 520.258 1504.46C520.258 1476.34 533.411 1449.36 556.823 1429.48C580.234 1409.59 611.987 1398.42 645.097 1398.42Z" fill="#1E1E1E"/>
        <path fill-rule="evenodd" clip-rule="evenodd" d="M1291.95 1348.96C1284.47 1349.01 1277.17 1351.27 1270.97 1355.46C1264.78 1359.65 1259.96 1365.58 1257.13 1372.5C1254.29 1379.42 1253.58 1387.03 1255.07 1394.36C1256.55 1401.7 1260.18 1408.42 1265.48 1413.7C1270.79 1418.97 1277.54 1422.55 1284.88 1424C1292.22 1425.44 1299.82 1424.68 1306.73 1421.8C1313.64 1418.93 1319.54 1414.08 1323.69 1407.85C1327.84 1401.63 1330.06 1394.32 1330.06 1386.84C1330 1376.77 1325.95 1367.14 1318.82 1360.04C1311.68 1352.94 1302.02 1348.96 1291.95 1348.96Z" fill="#1E1E1E"/>
        <path fill-rule="evenodd" clip-rule="evenodd" d="M1291.95 1304.39C1318.06 1304.34 1343.27 1313.93 1362.74 1331.32C1382.22 1348.71 1394.59 1372.67 1397.49 1398.61C1397.73 1394.69 1397.73 1390.76 1397.49 1386.84C1397.43 1358.7 1386.21 1331.74 1366.29 1311.87C1346.38 1292 1319.39 1280.83 1291.26 1280.83H1286.87C1288.26 1288.69 1289.18 1296.31 1289.87 1303.93H1291.26" fill="#3E9D00"/>
        <path fill-rule="evenodd" clip-rule="evenodd" d="M1392.87 1376.44C1385.7 1397.45 1372.13 1415.69 1354.08 1428.61C1336.02 1441.53 1314.38 1448.48 1292.18 1448.5V1493.07C1318.32 1493.11 1343.56 1483.49 1363.04 1466.05C1382.52 1448.62 1394.87 1424.6 1397.72 1398.61C1396.88 1390.77 1395.25 1383.04 1392.87 1375.52" fill="#3E9D00"/>
        <path fill-rule="evenodd" clip-rule="evenodd" d="M1291.96 1339.03V1348.96C1301.19 1348.89 1310.12 1352.22 1317.07 1358.3C1324.01 1364.39 1328.47 1372.82 1329.6 1381.98C1329.71 1380.37 1329.71 1378.75 1329.6 1377.13C1329.6 1372.13 1328.61 1367.18 1326.7 1362.55C1324.78 1357.93 1321.98 1353.73 1318.44 1350.19C1314.9 1346.65 1310.7 1343.84 1306.08 1341.93C1301.45 1340.01 1296.5 1339.03 1291.49 1339.03" fill="#3E9D00"/>
        <path fill-rule="evenodd" clip-rule="evenodd" d="M1329.82 1390.76C1328.8 1400.09 1324.37 1408.71 1317.38 1414.98C1310.39 1421.24 1301.34 1424.71 1291.95 1424.71V1432.79C1302.02 1432.79 1311.67 1428.81 1318.81 1421.71C1325.95 1414.62 1329.99 1404.98 1330.06 1394.92C1330.06 1393.53 1330.06 1392.15 1330.06 1390.76" fill="#3E9D00"/>
        <path fill-rule="evenodd" clip-rule="evenodd" d="M832.386 817.107C744.629 817.107 637.011 794.013 572.81 731.428C526.622 686.395 516.692 592.865 517.615 530.511C518.539 468.157 532.396 375.32 581.817 332.134C646.711 275.554 748.093 255 832.386 255C916.679 255 1017.14 275.554 1082.72 332.134C1132.15 375.32 1145.77 467.465 1146.93 530.511C1148.08 593.558 1137.46 686.395 1091.96 731.428C1027.53 794.706 919.912 817.107 832.386 817.107Z" fill="#1E1E1E"/>
        <path fill-rule="evenodd" clip-rule="evenodd" d="M832.382 753.368C898.893 753.368 994.04 737.664 1047.39 686.165C1076.95 656.836 1084.11 573.235 1083.41 531.435C1082.72 489.635 1073.02 407.882 1040.92 379.939C987.343 333.751 897.738 318.509 833.075 318.509C768.412 318.509 677.884 333.289 625.23 379.939C593.129 407.882 583.661 488.711 582.737 531.435C581.813 574.159 589.203 656.836 618.995 686.165C671.187 737.664 767.258 753.368 833.999 753.368" fill="#53C806"/>
        <path fill-rule="evenodd" clip-rule="evenodd" d="M832.382 1316.63C636.314 1316.63 439.785 1270.44 330.551 1175.52C191.987 1057.28 194.065 618.267 346.947 502.335C459.415 417.118 645.783 374.625 831.921 374.625C1018.06 374.625 1204.66 417.118 1316.89 502.335C1469.78 617.805 1471.62 1056.59 1333.29 1175.52C1223.36 1269.75 1027.53 1316.63 831.689 1316.63" fill="#1E1E1E"/>
        <path fill-rule="evenodd" clip-rule="evenodd" d="M832.384 1247.12C973.488 1247.12 1178.79 1217.79 1288.72 1122.64C1352 1068.6 1366.78 914.794 1365.39 837.198C1364.01 759.602 1343.45 609.491 1275.33 557.761C1161.7 471.62 971.179 444.139 832.384 444.139C693.59 444.139 502.833 471.62 389.211 557.761C321.084 609.491 300.761 758.448 299.376 837.198C297.99 915.948 312.539 1068.14 375.817 1122.64C486.899 1217.79 691.049 1247.12 832.384 1247.12Z" fill="#74DB3F"/>
        <path fill-rule="evenodd" clip-rule="evenodd" d="M610.911 395.411C757.18 367.699 907.352 367.699 1053.62 395.411C1050.21 389.63 1045.93 384.411 1040.92 379.939L1029.83 370.932C899.107 349.072 765.656 349.072 634.928 370.932C631.002 373.934 627.076 376.936 623.612 379.939C618.606 384.411 614.322 389.63 610.911 395.411Z" fill="#3E9D00"/>
        <path fill-rule="evenodd" clip-rule="evenodd" d="M651.324 368.392L634.928 370.932L651.324 368.392ZM1013.21 368.392L1029.83 370.932L1013.21 368.392ZM613.22 392.871C624.929 383.262 637.717 375.047 651.324 368.392C708.494 343.861 770.055 331.212 832.266 331.212C894.476 331.212 956.037 343.861 1013.21 368.392C1026.81 375.047 1039.6 383.262 1051.31 392.871L1052.93 394.257C1049.61 388.946 1045.57 384.127 1040.92 379.939L1029.83 370.932C975.564 331.442 893.349 318.509 832.381 318.509C771.413 318.509 688.967 331.442 634.928 370.932C631.002 373.934 627.076 376.937 623.612 379.939C618.959 384.127 614.917 388.946 611.603 394.257L613.22 392.871Z" fill="#74DB3F"/>
        <path fill-rule="evenodd" clip-rule="evenodd" d="M517.841 528.662C538.626 521.502 560.334 515.036 582.273 509.724C746.713 471.237 917.818 471.237 1082.26 509.724C1104.2 515.036 1125.91 521.502 1146.69 528.662C1192.77 543.677 1236.19 565.891 1275.32 594.48C1341.37 644.362 1362.39 786.159 1365.16 866.526C1365.16 855.903 1365.16 845.973 1365.16 836.966C1363.54 758.216 1343.22 609.26 1275.09 557.529C1235.29 528.619 1191.18 506.172 1144.38 491.018C1122.9 483.628 1100.5 477.393 1077.87 471.85C916.097 434.592 747.972 434.592 586.2 471.85C563.106 477.393 540.012 483.628 519.689 491.018C472.89 506.172 428.776 528.619 388.977 557.529C320.85 609.26 300.527 758.216 299.141 836.966C299.141 845.973 299.141 855.903 299.141 866.526C301.913 786.159 322.235 644.362 388.977 594.48C428.114 565.891 471.529 543.677 517.611 528.662" fill="#3E9D00"/>
        <path fill-rule="evenodd" clip-rule="evenodd" d="M911.594 1145.73C883.65 1147.81 857.092 1148.74 832.381 1148.74C807.671 1148.74 780.882 1148.74 752.938 1145.73C711.012 1142.91 669.292 1137.59 628 1129.8L615.529 1127.26C583.096 1120.65 551.092 1112.09 519.689 1101.62C467.263 1085.18 418.439 1058.93 375.814 1024.26C329.626 985.692 310.227 895.625 302.606 819.415C300.989 836.505 299.835 852.67 299.373 865.603C301.913 947.587 319.927 1073.45 375.814 1121.48C396.381 1138.83 418.848 1153.78 442.786 1166.06C464.072 1177.1 486.059 1186.75 508.604 1194.92C521.537 1199.54 534.47 1203.7 547.864 1207.62C570.958 1214.09 594.052 1219.86 617.146 1224.48C759.752 1253.12 906.628 1253.12 1049.23 1224.48C1072.33 1219.86 1095.42 1214.32 1118.52 1207.62C1131.68 1203.7 1144.84 1199.54 1157.78 1194.92C1180.32 1186.75 1202.31 1177.1 1223.59 1166.06C1247.53 1153.78 1270 1138.83 1290.57 1121.48C1346.45 1073.68 1364.47 947.587 1367.01 865.603C1367.01 851.516 1365.39 835.35 1363.77 819.415C1356.15 895.625 1335.83 985.692 1290.57 1024.26C1247.94 1058.93 1199.12 1085.18 1146.69 1101.62C1115.29 1112.09 1083.28 1120.65 1050.85 1127.26L1038.38 1129.8C997.087 1137.59 955.367 1142.91 913.441 1145.73" fill="#3E9D00"/>
        <path fill-rule="evenodd" clip-rule="evenodd" d="M832.385 1056.59C688.972 1056.59 545.558 1033.5 465.191 984.769C364.04 924.725 365.195 701.175 477.2 642.285C559.415 598.869 695.9 577.161 832.385 577.161C968.87 577.161 1105.13 598.869 1187.34 642.285C1299.35 701.175 1300.5 924.725 1199.35 984.769C1118.98 1032.8 975.568 1056.59 832.385 1056.59Z" fill="#3E9D00"/>
        <path fill-rule="evenodd" clip-rule="evenodd" d="M832.385 1108.55C688.972 1108.55 545.558 1085.46 465.191 1036.73C364.04 976.455 365.195 753.136 477.2 694.016C559.415 650.599 695.9 629.122 832.385 629.122C968.87 629.122 1105.13 650.599 1187.34 694.016C1299.35 753.136 1300.5 976.455 1199.35 1036.73C1118.98 1084.53 975.568 1108.55 832.385 1108.55Z" fill="#3E9D00"/>
        <path fill-rule="evenodd" clip-rule="evenodd" d="M832.385 1085.23C688.972 1085.23 545.558 1062.13 465.191 1013.64C364.04 953.361 365.195 729.811 477.2 670.922C559.415 627.505 695.9 605.796 832.385 605.796C968.87 605.796 1105.13 627.505 1187.34 670.922C1299.35 729.811 1300.5 953.361 1199.35 1013.64C1118.98 1061.44 975.568 1085.23 832.385 1085.23Z" fill="#1E1E1E"/>
        <path d="M930.747 824.552H969.759C980.545 824.552 989.265 833.291 989.265 844.058C989.265 854.826 980.545 863.564 969.759 863.564H930.747C919.96 863.564 911.241 854.826 911.241 844.058C911.241 833.291 919.96 824.552 930.747 824.552Z" fill="#DCF8FF" fill-opacity="0.4"/>
        <path d="M943.542 761.295L915.96 788.896C908.353 796.503 896.005 796.503 888.379 788.896C880.752 781.269 880.752 768.922 888.379 761.295L915.96 733.713C923.587 726.086 935.934 726.086 943.542 733.713C951.168 741.321 951.168 753.687 943.542 761.295Z" fill="#DCF8FF" fill-opacity="0.6"/>
        <path d="M813.71 707.516C813.71 696.748 822.449 688.01 833.216 688.01C843.984 688.01 852.722 696.748 852.722 707.516V746.528C852.722 757.295 843.984 766.034 833.216 766.034C822.449 766.034 813.71 757.295 813.71 746.528V707.516Z" fill="#DCF8FF"/>
        <path fill-rule="evenodd" clip-rule="evenodd" d="M554.331 1336.95C613.401 1352.07 673.671 1362.04 734.464 1366.74L826.84 1377.14L930.531 1366.74C991.324 1362.04 1051.59 1352.07 1110.66 1336.95L1133.76 1330.49C1146.46 1326.79 1158.93 1322.86 1171.17 1318.48C1188.95 1312.47 1206.04 1305.54 1222.67 1298.39C1220.07 1281.84 1215.57 1265.64 1209.28 1250.12C1199.81 1254.05 1190.11 1257.97 1180.18 1261.43C1170.25 1264.9 1166.09 1266.52 1158.7 1268.83C1139.3 1275.29 1119.21 1281.06 1098.42 1286.15C923.743 1327.13 741.945 1327.13 567.263 1286.15C546.479 1281.06 526.387 1275.29 506.757 1268.83L485.511 1261.43C475.581 1257.97 465.881 1254.05 456.412 1250.12C450.097 1265.62 445.677 1281.83 443.249 1298.39C459.646 1305.54 476.735 1312.47 494.518 1318.48C506.757 1322.86 519.228 1326.79 531.93 1330.49L555.024 1336.95" fill="#74DB3F"/>
        <path d="M833.216 922.083C822.449 922.083 813.71 930.802 813.71 941.589V980.601C813.71 991.388 822.449 1000.11 833.216 1000.11C843.984 1000.11 852.722 991.388 852.722 980.601V941.589C852.722 930.802 843.984 922.083 833.216 922.083ZM750.452 899.222L722.871 926.803C715.244 934.43 715.244 946.777 722.871 954.385C730.478 962.012 742.826 962.012 750.452 954.385L778.034 926.803C785.661 919.176 785.661 906.849 778.034 899.222C770.427 891.614 758.079 891.614 750.452 899.222ZM750.452 733.713C742.826 726.086 730.478 726.086 722.871 733.713C715.244 741.321 715.244 753.687 722.871 761.295L750.452 788.896C758.079 796.503 770.427 796.503 778.034 788.896C785.661 781.269 785.661 768.922 778.034 761.295L750.452 733.713ZM915.961 899.222C908.334 891.595 896.006 891.595 888.379 899.222C880.752 906.849 880.752 919.176 888.379 926.803L915.961 954.385C923.588 962.012 935.935 962.012 943.542 954.385C951.169 946.777 951.169 934.43 943.542 926.803L915.961 899.222ZM755.192 844.059C755.192 833.291 746.454 824.553 735.686 824.553H696.674C685.907 824.553 677.168 833.291 677.168 844.059C677.168 854.826 685.907 863.565 696.674 863.565H735.686C746.454 863.565 755.192 854.826 755.192 844.059Z" fill="#DCF8FF"/>
        <path d="M696.679 1504.56L701.404 1509.28L696.829 1513.86H694.729H692.029H687.604L684.904 1509.21L687.604 1504.56H692.029H694.804H696.679ZM702.529 1510.33L702.829 1510.03H707.179V1541.01L704.854 1543.33L697.879 1536.36V1535.91V1524.06V1517.01V1514.91L702.529 1510.33ZM704.854 1475.08L707.179 1477.41V1508.46H702.829L702.529 1508.16L697.879 1503.58V1502.76V1494.36V1482.51V1482.06L704.854 1475.08ZM679.354 1491.88V1482.51H688.654V1491.88V1499.61L684.004 1507.63L679.354 1499.61V1491.88ZM703.804 1544.38L701.479 1546.71H688.654H679.354H666.529L664.204 1544.38L671.179 1537.41H673.054H679.354H688.654H694.954H696.829L703.804 1544.38ZM664.204 1474.03L666.529 1471.71H679.354H688.654H701.479L703.804 1474.03L696.829 1481.01H694.954H688.654H679.354H673.054H671.629H671.179L664.204 1474.03ZM688.654 1526.53V1535.91H679.354V1526.53V1518.81L684.004 1510.78L688.654 1518.81V1526.53ZM726.71 1508.08L726.41 1508.46H722.06V1477.41L724.385 1475.08L731.36 1482.06V1494.36V1502.46V1503.51L726.71 1508.08ZM731.36 1535.91V1536.36L724.385 1543.33L722.06 1541.01V1509.96H726.41L726.71 1510.33L731.36 1514.91V1517.91V1524.06V1535.91ZM763.76 1510.33L764.06 1510.03H768.41V1541.01L766.085 1543.33L759.11 1536.36V1535.91V1524.06V1517.01V1514.91L763.76 1510.33ZM766.085 1475.08L768.41 1477.41V1508.46H764.06L763.76 1508.16L759.11 1503.58V1502.76V1494.36V1482.51V1482.06L766.085 1475.08ZM765.035 1544.38L762.71 1546.71H749.885H740.585H727.76L725.435 1544.38L732.41 1537.41H734.285H740.585H749.885H756.185H758.06L765.035 1544.38ZM787.94 1508.08L787.64 1508.46H783.29V1477.41L785.615 1475.08L792.59 1482.06V1494.36V1502.46V1503.51L787.94 1508.08ZM819.14 1504.56L823.865 1509.28L819.29 1513.86H817.19H814.49H810.065L807.365 1509.21L810.065 1504.56H814.49H817.265H819.14ZM792.59 1535.91V1536.36L785.615 1543.33L783.29 1541.01V1509.96H787.64L787.94 1510.33L792.59 1514.91V1517.91V1524.06V1535.91ZM786.665 1474.03L788.99 1471.71H801.815H811.115H823.94L826.265 1474.03L819.29 1481.01H817.415H811.115H801.815H795.515H794.09H793.64L786.665 1474.03ZM802.865 1504.56L805.565 1509.21L802.865 1513.86H798.44H795.665H793.64L788.99 1509.21L793.64 1504.56H795.665H798.44H802.865ZM849.171 1508.08L848.871 1508.46H844.521V1477.41L846.846 1475.08L853.821 1482.06V1494.36V1502.46V1503.51L849.171 1508.08ZM880.371 1504.56L885.096 1509.28L880.521 1513.86H878.421H875.721H871.296L868.596 1509.21L871.296 1504.56H875.721H878.496H880.371ZM853.821 1535.91V1536.36L846.846 1543.33L844.521 1541.01V1509.96H848.871L849.171 1510.33L853.821 1514.91V1517.91V1524.06V1535.91ZM847.896 1474.03L850.221 1471.71H863.046H872.346H885.171L887.496 1474.03L880.521 1481.01H878.646H872.346H863.046H856.746H855.321H854.871L847.896 1474.03ZM864.096 1504.56L866.796 1509.21L864.096 1513.86H859.671H856.896H854.871L850.221 1509.21L854.871 1504.56H856.896H859.671H864.096ZM910.401 1508.08L910.101 1508.46H905.751V1477.41L908.076 1475.08L915.051 1482.06V1494.36V1502.46V1503.51L910.401 1508.08ZM941.601 1504.56L946.326 1509.28L941.751 1513.86H939.651H936.951H932.526L929.826 1509.21L932.526 1504.56H936.951H939.726H941.601ZM915.051 1535.91V1536.36L908.076 1543.33L905.751 1541.01V1509.96H910.101L910.401 1510.33L915.051 1514.91V1517.91V1524.06V1535.91ZM948.726 1544.38L946.401 1546.71H933.576H924.276H911.451L909.126 1544.38L916.101 1537.41H917.976H924.276H933.576H939.876H941.751L948.726 1544.38ZM909.126 1474.03L911.451 1471.71H924.276H933.576H946.401L948.726 1474.03L941.751 1481.01H939.876H933.576H924.276H917.976H916.551H916.101L909.126 1474.03ZM925.326 1504.56L928.026 1509.21L925.326 1513.86H920.901H918.126H916.101L911.451 1509.21L916.101 1504.56H918.126H920.901H925.326ZM971.632 1508.08L971.332 1508.46H966.982V1477.41L969.307 1475.08L976.282 1482.06V1494.36V1502.46V1503.51L971.632 1508.08ZM1002.83 1504.56L1007.56 1509.28L1002.98 1513.86H1000.88H998.182H993.757L991.057 1509.21L993.757 1504.56H998.182H1000.96H1002.83ZM976.282 1535.91V1536.36L969.307 1543.33L966.982 1541.01V1509.96H971.332L971.632 1510.33L976.282 1514.91V1517.91V1524.06V1535.91ZM1011.01 1475.08L1013.33 1477.41V1508.46H1008.98L1008.68 1508.16L1004.03 1503.58V1502.76V1494.36V1482.51V1482.06L1011.01 1475.08ZM1002.53 1521.36V1535.91H1000.21L996.307 1529.16V1515.36H999.082L1002.53 1521.36ZM970.357 1474.03L972.682 1471.71H985.507H994.807H1007.63L1009.96 1474.03L1002.98 1481.01H1001.11H994.807H985.507H979.207H977.782H977.332L970.357 1474.03ZM986.557 1504.56L989.257 1509.21L986.557 1513.86H982.132H979.357H977.332L972.682 1509.21L977.332 1504.56H979.357H982.132H986.557Z" fill="#DCF8FF"/>
        <path fill-rule="evenodd" clip-rule="evenodd" d="M912.666 124.782L894.552 271.065L824.293 254.684L872.742 115.474C862.038 108.078 854.25 97.1784 850.721 84.6554C847.193 72.1324 848.144 58.7704 853.412 46.8739C858.68 34.9773 867.934 25.2919 879.578 19.4873C891.222 13.6828 904.527 12.1232 917.197 15.0774C929.868 18.0317 941.111 25.3146 948.987 35.6704C956.863 46.0262 960.879 58.8055 960.343 71.8051C959.806 84.8047 954.75 97.2097 946.046 106.881C937.343 116.552 925.538 122.883 912.666 124.782Z" fill="#1E1E1E"/>
    </g>
    <defs>
        <clipPath id="clip0_12_1005">
            <rect width="1656" height="1656" fill="white"/>
        </clipPath>
    </defs>
</svg>
