<svg width="90" height="56" viewBox="0 0 90 56" fill="none" xmlns="http://www.w3.org/2000/svg">
<path d="M10.1941 50.2373C4.44808 50.2373 0.434082 46.5893 0.434082 41.3633C0.434082 36.1373 4.44808 32.4893 10.1941 32.4893C11.6441 32.4893 13.3471 32.6533 15.9571 33.8413V37.5583C14.0681 36.5053 12.2011 35.9713 10.4071 35.9713C6.80708 35.9713 4.29308 38.1893 4.29308 41.3613C4.29308 44.5343 6.80708 46.7533 10.4071 46.7533C12.1521 46.7533 14.0701 46.2093 15.9571 45.1793V48.8843C13.3451 50.0723 11.6441 50.2373 10.1941 50.2373ZM23.6531 50.2373C20.2561 50.2373 17.8841 47.6573 17.8841 43.9643C17.8841 40.2713 20.3591 37.6643 23.7681 37.6643C25.6521 37.6643 26.9621 38.2393 28.0151 39.5323L28.1001 39.6343V38.2773H31.4221V49.9693H28.1001V48.3093L28.0131 48.4333C27.1591 49.6643 25.7731 50.2373 23.6531 50.2373ZM24.8011 40.4513C22.8111 40.4513 21.3671 41.9293 21.3671 43.9643C21.3671 46.0003 22.8111 47.4513 24.8011 47.4513C26.7911 47.4513 28.2611 45.9833 28.2611 43.9643C28.2611 41.9453 26.8071 40.4513 24.8011 40.4513ZM33.9421 55.0633V38.2773H37.2921V39.7373L37.3781 39.6173C38.0211 38.7143 39.5431 37.6633 41.7171 37.6633C45.0571 37.6633 47.4801 40.3133 47.4801 43.9633C47.4801 47.6133 45.0981 50.2363 41.6901 50.2363C39.6561 50.2363 38.2051 49.6513 37.3781 48.4933L37.2911 48.3733V55.0633H33.9421ZM40.5621 40.4493C38.5721 40.4493 37.1311 41.9273 37.1311 43.9633C37.1311 45.9983 38.5751 47.4493 40.5631 47.4493C42.5511 47.4493 43.9701 45.9823 43.9701 43.9633C43.9701 41.9433 42.5361 40.4493 40.5621 40.4493ZM59.2871 50.2373C53.5401 50.2373 49.5271 46.5893 49.5271 41.3633C49.5271 36.1373 53.5401 32.4893 59.2871 32.4893C60.7361 32.4893 62.4391 32.6533 65.0501 33.8413V37.5583C63.1601 36.5053 61.2931 35.9713 59.5011 35.9713C55.9011 35.9713 53.3871 38.1893 53.3871 41.3613C53.3871 44.5343 55.9011 46.7533 59.5011 46.7533C61.2461 46.7533 63.1641 46.2093 65.0501 45.1793V48.8843C62.4381 50.0723 60.7361 50.2373 59.2871 50.2373ZM73.2441 50.2373C69.4981 50.2373 67.0791 48.4693 67.0791 45.7353V37.9303H70.4021V44.7653C70.4021 46.4453 71.4651 47.4483 73.2441 47.4483C75.0231 47.4483 76.0351 46.4463 76.0351 44.7663V37.9303H79.3571V45.7323C79.3571 48.4683 76.9581 50.2353 73.2441 50.2353V50.2373ZM86.6901 50.2373C83.0111 50.2373 81.7041 47.9553 81.7041 46.0013V37.3053L85.0261 35.5573V37.9313H89.6121V40.6493H85.0261V45.3313C85.0261 45.9603 85.2661 47.4233 87.4941 47.4233C88.1121 47.4233 88.8801 47.2603 89.6101 46.9753V49.7753C88.4481 50.2013 87.0831 50.2353 86.6881 50.2353L86.6901 50.2373Z" fill="black"/>
<path d="M60.3011 5.95507V1.19107L54.5711 4.19907V4.02107C54.5711 2.12207 53.2101 0.976074 51.2391 0.976074H33.0761C31.0001 0.976074 29.7451 2.12207 29.7451 4.02107V8.82107L37.7681 12.9761L29.7451 17.1671V21.9671C29.7451 23.8301 31.0001 24.9761 33.0761 24.9761H51.2381C53.2081 24.9761 54.5681 23.8301 54.5681 21.9671V21.7171L60.2991 24.7611V19.9261L46.9751 12.9761L60.3011 5.95507ZM42.3551 15.3391L52.2071 20.4991H32.4651L42.3531 15.3391H42.3551ZM52.1351 5.45407L42.3541 10.5761L32.4671 5.45407H52.1331H52.1351Z" fill="black"/>
</svg>