<svg width="1068" height="258" viewBox="0 0 1068 258" fill="none" xmlns="http://www.w3.org/2000/svg">
<path d="M0.494141 129.006V257.673H533.828H1067.16V129.006V0.339505H533.828H0.494141V129.006ZM25.5608 16.2062C26.7608 16.8728 27.1608 20.2062 26.8941 27.8062L26.4941 38.3395H17.8275H9.16081L8.76081 28.4728C8.49414 23.0062 8.62747 17.8062 9.02747 16.7395C9.82747 14.7395 22.6275 14.3395 25.5608 16.2062ZM58.4941 27.0062V38.3395H49.8275H41.1608L40.7608 28.6062C40.2275 16.0728 41.2941 14.7395 51.0275 15.2728L58.4941 15.6728V27.0062ZM90.8941 27.2728L91.2941 39.0062H82.4941H73.8275V27.9395C73.8275 21.8062 74.2275 16.3395 74.7608 15.8062C75.2941 15.2728 79.0275 15.0062 83.1608 15.2728L90.4941 15.6728L90.8941 27.2728ZM122.894 27.2728L123.294 39.0062H114.494H105.827V27.9395C105.827 21.8062 106.227 16.3395 106.761 15.8062C107.294 15.2728 111.027 15.0062 115.161 15.2728L122.494 15.6728L122.894 27.2728ZM155.027 16.8728C155.961 18.0728 156.494 22.4728 156.227 28.6062L155.827 38.3395H147.161H138.494L138.094 28.4728C137.827 23.0062 137.961 17.8062 138.361 16.7395C139.294 14.3395 153.027 14.3395 155.027 16.8728ZM187.027 16.8728C187.961 18.0728 188.494 22.4728 188.227 28.6062L187.827 38.3395H179.161H170.494L170.094 28.4728C169.827 23.0062 169.961 17.8062 170.361 16.7395C171.294 14.3395 185.027 14.3395 187.027 16.8728ZM219.827 27.0062V38.3395H211.161H202.494L202.094 29.6728C201.827 25.0062 202.094 19.6728 202.494 17.9395C203.161 15.1395 203.827 14.8728 211.561 15.2728L219.827 15.6728V27.0062ZM252.227 27.2728L252.627 39.0062H243.961C237.427 39.0062 235.294 38.4728 234.627 36.8728C233.427 33.5395 233.694 22.2062 235.161 18.3395C236.361 15.1395 236.894 14.8728 244.094 15.2728L251.827 15.6728L252.227 27.2728ZM284.227 27.2728L284.627 39.0062H275.827H267.161V27.9395C267.161 21.8062 267.561 16.3395 268.094 15.8062C268.627 15.2728 272.361 15.0062 276.494 15.2728L283.827 15.6728L284.227 27.2728ZM316.227 16.6062C317.827 18.2062 318.494 33.1395 317.027 36.8728C316.361 38.4728 314.227 39.0062 307.694 39.0062H299.161V27.9395C299.161 21.8062 299.561 16.3395 300.094 15.9395C301.561 14.3395 314.494 14.8728 316.227 16.6062ZM348.361 16.8728C349.294 18.0728 349.827 22.4728 349.561 28.6062L349.161 38.3395H340.494H331.827L331.427 28.4728C331.161 23.0062 331.294 17.8062 331.694 16.7395C332.627 14.3395 346.361 14.3395 348.361 16.8728ZM381.161 27.0062V38.3395H372.494H363.827L363.427 27.8062C363.027 15.4062 363.427 14.8728 373.827 15.2728L381.161 15.6728V27.0062ZM413.561 27.4062L413.961 39.1395L404.894 38.7395L395.827 38.3395L395.427 28.6062C394.894 16.0728 395.961 14.7395 405.694 15.2728L413.161 15.6728L413.561 27.4062ZM445.561 27.2728L445.961 39.0062H437.161H428.494V27.9395C428.494 21.8062 428.894 16.3395 429.427 15.8062C429.961 15.2728 433.694 15.0062 437.827 15.2728L445.161 15.6728L445.561 27.2728ZM477.561 27.2728L477.961 39.0062H469.161H460.494V27.9395C460.494 21.8062 460.894 16.3395 461.427 15.8062C461.961 15.2728 465.694 15.0062 469.827 15.2728L477.161 15.6728L477.561 27.2728ZM509.694 16.8728C510.628 18.0728 511.161 22.4728 510.894 28.6062L510.494 38.3395H501.828H493.161L492.761 28.4728C492.494 23.0062 492.627 17.8062 493.027 16.7395C493.961 14.3395 507.694 14.3395 509.694 16.8728ZM542.494 27.0062V38.3395H533.828H525.161L524.761 28.4728C524.228 14.8728 524.228 14.7395 534.094 15.2728L542.494 15.6728V27.0062ZM574.494 27.0062V38.3395H565.828H557.161L556.761 28.6062C556.228 16.0728 557.294 14.7395 567.028 15.2728L574.494 15.6728V27.0062ZM606.894 27.2728L607.294 39.0062H598.494H589.828V27.9395C589.828 21.8062 590.228 16.3395 590.761 15.8062C591.294 15.2728 595.028 15.0062 599.161 15.2728L606.494 15.6728L606.894 27.2728ZM638.894 27.2728L639.294 39.0062H630.494H621.828V27.9395C621.828 21.8062 622.228 16.3395 622.761 15.8062C623.294 15.2728 627.028 15.0062 631.161 15.2728L638.494 15.6728L638.894 27.2728ZM671.028 16.8728C671.961 18.0728 672.494 22.4728 672.228 28.6062L671.828 38.3395L662.894 38.7395L653.828 39.1395V27.9395C653.828 21.8062 654.228 16.3395 654.761 15.9395C656.494 14.2062 669.428 15.0062 671.028 16.8728ZM702.894 16.2062C704.094 16.8728 704.494 20.2062 704.228 27.8062L703.828 38.3395H695.161H686.494L686.094 28.4728C685.828 23.0062 685.961 17.8062 686.361 16.7395C687.161 14.7395 699.961 14.3395 702.894 16.2062ZM735.828 27.0062V38.3395H727.161H718.494L718.094 28.6062C717.561 16.0728 718.628 14.7395 728.361 15.2728L735.828 15.6728V27.0062ZM768.228 27.2728L768.628 39.0062H759.961C753.428 39.0062 751.294 38.4728 750.628 36.8728C749.161 33.0062 749.828 18.2062 751.428 16.6062C752.494 15.5395 755.961 15.0062 760.494 15.2728L767.828 15.6728L768.228 27.2728ZM800.228 27.2728L800.628 39.0062H791.828H783.161V27.9395C783.161 21.8062 783.561 16.3395 784.094 15.8062C784.628 15.2728 788.361 15.0062 792.494 15.2728L799.828 15.6728L800.228 27.2728ZM832.094 16.8728C832.628 17.9395 833.028 23.4062 832.761 28.8728L832.228 39.0062H823.694H815.161V27.9395C815.161 21.8062 815.561 16.3395 816.094 15.9395C817.828 14.0728 831.028 15.0062 832.094 16.8728ZM864.361 16.8728C865.294 18.0728 865.828 22.4728 865.561 28.6062L865.161 38.3395H856.494H847.828L847.428 28.4728C847.161 23.0062 847.294 17.8062 847.694 16.7395C848.628 14.3395 862.361 14.3395 864.361 16.8728ZM897.161 27.0062V38.3395H888.494H879.828L879.428 27.8062C879.028 15.4062 879.428 14.8728 889.828 15.2728L897.161 15.6728V27.0062ZM929.161 27.0062V38.3395H920.494H911.828L911.428 28.6062C910.894 16.0728 911.961 14.7395 921.694 15.2728L929.161 15.6728V27.0062ZM961.561 27.2728L961.961 39.0062H953.161H944.494V27.9395C944.494 21.8062 944.894 16.3395 945.428 15.8062C945.961 15.2728 949.694 15.0062 953.828 15.2728L961.161 15.6728L961.561 27.2728ZM993.561 27.2728L993.961 39.0062H985.161H976.494V27.9395C976.494 21.8062 976.894 16.3395 977.428 15.8062C977.961 15.2728 981.694 15.0062 985.828 15.2728L993.161 15.6728L993.561 27.2728ZM1025.69 16.8728C1026.63 18.0728 1027.16 22.4728 1026.89 28.6062L1026.49 38.3395L1017.56 38.7395L1008.49 39.1395V27.9395C1008.49 21.8062 1008.89 16.3395 1009.43 15.9395C1011.16 14.2062 1024.09 15.0062 1025.69 16.8728ZM1058.49 27.0062V38.3395H1049.83H1041.16L1040.76 27.8062C1040.36 15.4062 1040.76 14.8728 1051.16 15.2728L1058.49 15.6728V27.0062ZM204.494 53.5395C205.294 55.2728 205.827 81.4062 205.827 129.14C205.827 195.14 205.561 202.34 203.561 204.606C201.561 206.873 196.761 207.006 107.027 207.006C23.0275 207.006 12.4941 206.74 10.6275 204.873C8.76081 203.006 8.49414 194.34 8.49414 129.54C8.49414 81.5395 9.02747 55.2728 9.82747 53.5395C11.1608 51.0062 13.6941 51.0062 107.161 51.0062C200.627 51.0062 203.161 51.0062 204.494 53.5395ZM417.827 53.5395C418.627 55.2728 419.161 81.4062 419.161 129.14C419.161 195.14 418.894 202.34 416.894 204.606C414.894 206.873 410.094 207.006 320.361 207.006C236.361 207.006 225.827 206.74 223.961 204.873C222.094 203.006 221.827 194.34 221.827 129.54C221.827 81.5395 222.361 55.2728 223.161 53.5395C224.494 51.0062 227.027 51.0062 320.494 51.0062C413.961 51.0062 416.494 51.0062 417.827 53.5395ZM631.161 53.5395C631.961 55.2728 632.494 81.4062 632.494 129.14C632.494 195.14 632.228 202.34 630.228 204.606C628.228 206.873 623.428 207.006 534.094 207.006C448.494 207.006 439.827 206.873 437.561 204.74C435.294 202.74 435.161 198.606 435.161 129.406C435.161 81.4062 435.694 55.2728 436.494 53.5395C437.827 51.0062 440.361 51.0062 533.828 51.0062C627.294 51.0062 629.828 51.0062 631.161 53.5395ZM844.494 53.5395C845.294 55.2728 845.828 81.5395 845.828 129.54C845.828 194.34 845.561 203.006 843.694 204.873C841.828 206.74 831.294 207.006 747.561 207.006C661.828 207.006 653.161 206.873 650.894 204.74C648.628 202.74 648.494 198.606 648.494 129.406C648.494 81.4062 649.028 55.2728 649.828 53.5395C651.161 51.0062 653.694 51.0062 747.161 51.0062C840.628 51.0062 843.161 51.0062 844.494 53.5395ZM1057.83 53.5395C1058.63 55.2728 1059.16 81.5395 1059.16 129.54C1059.16 194.34 1058.89 203.006 1057.03 204.873C1055.16 206.74 1044.63 207.006 960.894 207.006C875.161 207.006 866.494 206.873 864.228 204.74C861.961 202.74 861.828 198.606 861.828 129.406C861.828 81.4062 862.361 55.2728 863.161 53.5395C864.494 51.0062 867.028 51.0062 960.494 51.0062C1053.96 51.0062 1056.49 51.0062 1057.83 53.5395ZM26.4941 229.673V241.006H17.8275H9.16081L8.76081 231.14C8.22747 217.54 8.22747 217.406 18.0941 217.94L26.4941 218.34V229.673ZM58.4941 229.673V241.006H49.8275H41.1608L40.7608 232.34C40.4941 227.673 40.7608 222.34 41.1608 220.606C41.8275 217.806 42.4941 217.54 50.2275 217.94L58.4941 218.34V229.673ZM90.8941 229.94L91.2941 241.673H82.4941H73.8275V230.606C73.8275 224.473 74.2275 219.006 74.7608 218.473C75.2941 217.94 79.0275 217.673 83.1608 217.94L90.4941 218.34L90.8941 229.94ZM122.894 229.94L123.294 241.673H114.494H105.827V230.606C105.827 224.473 106.227 219.006 106.761 218.473C107.294 217.94 111.027 217.673 115.161 217.94L122.494 218.34L122.894 229.94ZM155.027 219.54C155.961 220.74 156.494 225.14 156.227 231.273L155.827 241.006H147.161H138.494L138.094 231.14C137.827 225.673 137.961 220.473 138.361 219.406C139.294 217.006 153.027 217.006 155.027 219.54ZM187.827 229.673V241.006H179.161H170.494L170.094 231.14C169.561 217.54 169.561 217.406 179.427 217.94L187.827 218.34V229.673ZM219.827 229.673V241.006H211.161H202.494L202.094 232.34C201.827 227.673 202.094 222.34 202.494 220.606C203.161 217.806 203.827 217.54 211.561 217.94L219.827 218.34V229.673ZM251.827 229.673V241.006L243.561 241.406L235.427 241.806L234.894 231.406C234.627 225.673 235.027 220.206 235.694 219.273C236.494 218.073 239.427 217.673 244.361 217.94L251.827 218.34V229.673ZM284.227 229.94L284.627 241.673H275.827H267.161V230.606C267.161 224.473 267.561 219.006 268.094 218.473C268.627 217.94 272.361 217.673 276.494 217.94L283.827 218.34L284.227 229.94ZM316.227 229.94L316.627 241.673H307.827H299.161V230.606C299.161 224.473 299.561 219.006 300.094 218.473C300.627 217.94 304.361 217.673 308.494 217.94L315.827 218.34L316.227 229.94ZM349.161 220.74C349.561 222.34 349.827 227.673 349.561 232.34L349.161 241.006H340.494H331.827L331.427 231.14C331.161 225.673 331.294 220.473 331.694 219.406C332.227 218.206 334.894 217.673 340.361 217.673C347.694 217.673 348.494 217.94 349.161 220.74ZM381.161 229.673V241.006H372.494H363.827L363.427 231.14C362.894 217.54 362.894 217.406 372.761 217.94L381.161 218.34V229.673ZM413.161 229.673V241.006H404.494H395.827L395.427 231.273C394.894 218.74 395.961 217.406 405.694 217.94L413.161 218.34V229.673ZM445.561 229.94L445.961 241.673H437.161H428.494V230.606C428.494 224.473 428.894 219.006 429.427 218.473C429.961 217.94 433.694 217.673 437.827 217.94L445.161 218.34L445.561 229.94ZM477.561 229.94L477.961 241.673H469.161H460.494V230.606C460.494 224.473 460.894 219.006 461.427 218.473C461.961 217.94 465.694 217.673 469.827 217.94L477.161 218.34L477.561 229.94ZM509.694 219.54C510.628 220.74 511.161 225.14 510.894 231.273L510.494 241.006H501.828H493.161L492.761 231.14C492.494 225.673 492.627 220.473 493.027 219.406C493.961 217.006 507.694 217.006 509.694 219.54ZM542.494 229.673V241.006H533.828H525.161L524.761 231.14C524.228 217.54 524.228 217.406 534.094 217.94L542.494 218.34V229.673ZM574.494 229.673V241.006H565.828H557.161L556.761 232.34C556.494 227.673 556.761 222.34 557.161 220.606C557.828 217.806 558.494 217.54 566.228 217.94L574.494 218.34V229.673ZM606.894 229.94L607.294 241.673H598.494H589.828V230.606C589.828 224.473 590.228 219.006 590.761 218.473C591.294 217.94 595.028 217.673 599.161 217.94L606.494 218.34L606.894 229.94ZM638.894 229.94L639.294 241.673H630.494H621.828V230.606C621.828 224.473 622.228 219.006 622.761 218.473C623.294 217.94 627.028 217.673 631.161 217.94L638.494 218.34L638.894 229.94ZM671.028 219.54C671.961 220.74 672.494 225.14 672.228 231.273L671.828 241.006H663.161H654.494L654.094 231.14C653.828 225.673 653.961 220.473 654.361 219.406C655.294 217.006 669.028 217.006 671.028 219.54ZM703.828 229.673V241.006H695.161H686.494L686.094 231.14C685.561 217.54 685.561 217.406 695.428 217.94L703.828 218.34V229.673ZM735.828 229.673V241.006H727.161H718.494L718.094 231.14C717.561 217.54 717.561 217.406 727.428 217.94L735.828 218.34V229.673ZM767.828 229.673V241.006L759.961 241.406C750.494 241.94 749.828 241.14 749.828 230.606C749.828 219.006 751.028 217.406 760.228 217.94L767.828 218.34V229.673ZM800.228 229.94L800.628 241.673H791.828H783.161V230.606C783.161 224.473 783.561 219.006 784.094 218.473C784.628 217.94 788.361 217.673 792.494 217.94L799.828 218.34L800.228 229.94ZM832.094 219.54C832.628 220.606 833.028 226.073 832.761 231.54L832.228 241.673H823.694H815.161V230.606C815.161 224.473 815.561 219.006 816.094 218.606C817.828 216.74 831.028 217.673 832.094 219.54ZM865.161 220.74C865.561 222.34 865.828 227.673 865.561 232.34L865.161 241.006H856.494H847.828L847.428 231.14C847.161 225.673 847.294 220.473 847.694 219.406C848.228 218.206 850.894 217.673 856.361 217.673C863.694 217.673 864.494 217.94 865.161 220.74ZM897.161 229.673V241.006H888.494H879.828L879.428 231.14C878.894 217.54 878.894 217.406 888.761 217.94L897.161 218.34V229.673ZM929.161 229.673V241.006H920.494H911.828L911.428 232.34C911.161 227.673 911.428 222.34 911.828 220.606C912.494 217.806 913.161 217.54 920.894 217.94L929.161 218.34V229.673ZM961.561 229.94L961.961 241.673H953.161H944.494V230.606C944.494 224.473 944.894 219.006 945.428 218.473C945.961 217.94 949.694 217.673 953.828 217.94L961.161 218.34L961.561 229.94ZM993.561 229.94L993.961 241.673H985.161H976.494V230.606C976.494 224.473 976.894 219.006 977.428 218.473C977.961 217.94 981.694 217.673 985.828 217.94L993.161 218.34L993.561 229.94ZM1025.69 219.54C1026.63 220.74 1027.16 225.14 1026.89 231.273L1026.49 241.006H1017.83H1009.16L1008.76 231.14C1008.49 225.673 1008.63 220.473 1009.03 219.406C1009.96 217.006 1023.69 217.006 1025.69 219.54ZM1058.49 229.673V241.006H1049.83H1041.16L1040.76 231.14C1040.23 217.54 1040.23 217.406 1050.09 217.94L1058.49 218.34V229.673Z" fill="#525252"/>
</svg>
