<svg width="36" height="37" viewBox="0 0 36 37" fill="none" xmlns="http://www.w3.org/2000/svg">
<path d="M17.8549 15.6507C17.0739 14.8697 15.8076 14.8697 15.0265 15.6507C14.2455 16.4318 14.2455 17.6981 15.0265 18.4792L20.6834 24.136C21.4644 24.9171 22.7308 24.9171 23.5118 24.136C24.2928 23.355 24.2928 22.0886 23.5118 21.3076L17.8549 15.6507Z" fill="#404040"/>
<path d="M19.2754 7.16757C18.4943 6.38652 17.228 6.38653 16.4469 7.16757C15.6659 7.94862 15.6659 9.21495 16.4469 9.996L20.6896 14.2386C21.4706 15.0197 22.7369 15.0197 23.518 14.2386C24.299 13.4576 24.299 12.1913 23.518 11.4102L19.2754 7.16757Z" fill="#68ABDF"/>
<path d="M14.3286 2.21884C13.5475 1.43779 12.2812 1.43779 11.5002 2.21884C10.7191 2.99989 10.7191 4.26622 11.5002 5.04727C12.2812 5.82832 13.5475 5.82832 14.3286 5.04727C15.1096 4.26622 15.1096 2.99989 14.3286 2.21884Z" fill="#99C47A"/>
<path d="M6.54147 4.33725C5.76042 3.5562 4.49409 3.5562 3.71304 4.33725C2.93199 5.1183 2.93199 6.38463 3.71304 7.16568L10.077 13.5296C10.8581 14.3107 12.1244 14.3107 12.9054 13.5296C13.6865 12.7486 13.6865 11.4823 12.9054 10.7012L6.54147 4.33725Z" fill="#FFC66D"/>
<path d="M5.1362 12.827C4.35515 12.0459 3.08882 12.0459 2.30777 12.827C1.52672 13.608 1.52672 14.8744 2.30777 15.6554L10.793 24.1407C11.5741 24.9218 12.8404 24.9218 13.6215 24.1407C14.4025 23.3597 14.4025 22.0933 13.6215 21.3123L5.1362 12.827Z" fill="#FF6470"/>
<path d="M13.7063 26.8966C12.7221 27.3981 12.3308 28.6025 12.8323 29.5866C13.3337 30.5708 14.5381 30.9621 15.5222 30.4607L22.6503 26.8287C23.6345 26.3273 24.0258 25.1229 23.5243 24.1388C23.0229 23.1546 21.8185 22.7633 20.8343 23.2647L13.7063 26.8966Z" fill="#404040"/>
<path d="M23.105 34.332C23.2778 35.423 24.3023 36.1673 25.3933 35.9945C26.4842 35.8217 27.2286 34.7972 27.0558 33.7063L25.8043 25.8048C25.6315 24.7138 24.607 23.9695 23.5161 24.1422C22.4251 24.315 21.6808 25.3395 21.8536 26.4305L23.105 34.332Z" fill="#404040"/>
<path d="M33.0825 27.6796C34.1734 27.8524 35.1979 27.1081 35.3707 26.0171C35.5435 24.9262 34.7992 23.9017 33.7082 23.7289L25.8067 22.4774C24.7157 22.3046 23.6913 23.0489 23.5185 24.1399C23.3457 25.2309 24.09 26.2554 25.181 26.4282L33.0825 27.6796Z" fill="#404040"/>
<path d="M29.846 16.138C30.3475 15.1538 29.9561 13.9495 28.972 13.448C27.9878 12.9466 26.7834 13.3379 26.282 14.3221L22.65 21.4501C22.1486 22.4343 22.5399 23.6386 23.5241 24.1401C24.5082 24.6416 25.7126 24.2502 26.2141 23.2661L29.846 16.138Z" fill="#404040"/>
</svg>
