<svg width="206" height="72" viewBox="0 0 206 72" fill="none" xmlns="http://www.w3.org/2000/svg">
<mask id="mask0_4027_313" style="mask-type:luminance" maskUnits="userSpaceOnUse" x="1" y="0" width="204" height="72">
<path d="M198.338 0.678711H7.66061C4.30782 0.678711 1.58984 3.39669 1.58984 6.74948V65.2496C1.58984 68.6024 4.30782 71.3204 7.66061 71.3204H198.338C201.691 71.3204 204.409 68.6024 204.409 65.2496V6.74948C204.409 3.39669 201.691 0.678711 198.338 0.678711Z" fill="white"/>
</mask>
<g mask="url(#mask0_4027_313)">
<path d="M-2.25781 -7.31543L-1.85156 -5.06543L-6.97656 -0.15918L-9.72656 69.9346L8.48926 82.3715L26.4156 48.9676L18.3359 14.2783L189.523 12.2783L214.336 -3.72168L-2.25781 -7.31543Z" fill="#656565"/>
<g filter="url(#filter0_f_4027_313)">
<path d="M186.472 5.3696C190.336 4.54177 214.619 -0.701172 214.619 -0.701172L214.343 71.8721L201.925 78.7707L185.645 54.4876L186.472 5.3696Z" fill="#D6D6D6"/>
</g>
<g filter="url(#filter1_f_4027_313)">
<path d="M2.14108 74.6315L15.1105 47.8649L182.609 45.1055L204.408 71.872L205.512 90.0844L-3.92969 93.3957L2.14108 74.6315Z" fill="#939393"/>
</g>
</g>
<path d="M198.338 0.678711H7.66061C4.30782 0.678711 1.58984 3.39669 1.58984 6.74948V65.2496C1.58984 68.6024 4.30782 71.3204 7.66061 71.3204H198.338C201.691 71.3204 204.409 68.6024 204.409 65.2496V6.74948C204.409 3.39669 201.691 0.678711 198.338 0.678711Z" stroke="#727272" stroke-width="1.5"/>
<path d="M185.921 1.78223H15.3872C12.0344 1.78223 9.31641 4.5002 9.31641 7.853V50.6243C9.31641 53.9771 12.0344 56.6951 15.3872 56.6951H185.921C189.273 56.6951 191.991 53.9771 191.991 50.6243V7.853C191.991 4.5002 189.273 1.78223 185.921 1.78223Z" fill="url(#paint0_linear_4027_313)" stroke="url(#paint1_linear_4027_313)"/>
<path d="M27.972 28.9092H23.2891L33.2403 18.958L43.5817 29.2995H38.7037V35.7385H27.5817L27.972 28.9092Z" stroke="#4D4D4D" stroke-width="1.5"/>
<path d="M62.5615 25.6347C62.4901 25.0013 62.1957 24.5106 61.6783 24.1627C61.1608 23.8103 60.5096 23.6341 59.7245 23.6341C59.1624 23.6341 58.6762 23.7233 58.2658 23.9017C57.8554 24.0757 57.5365 24.3166 57.309 24.6243C57.0859 24.9277 56.9744 25.2734 56.9744 25.6615C56.9744 25.9871 57.0503 26.2681 57.2019 26.5045C57.358 26.741 57.561 26.9395 57.8108 27.1001C58.0651 27.2562 58.3372 27.3878 58.6271 27.4948C58.9171 27.5974 59.1959 27.6822 59.4635 27.7491L60.8017 28.097C61.2389 28.2041 61.6872 28.3491 62.1467 28.532C62.6061 28.7148 63.0321 28.9557 63.4247 29.2546C63.8172 29.5535 64.1339 29.9237 64.3748 30.3653C64.6201 30.8069 64.7428 31.3355 64.7428 31.9511C64.7428 32.7273 64.5421 33.4165 64.1406 34.0187C63.7436 34.6209 63.1659 35.0959 62.4076 35.4439C61.6537 35.7918 60.7415 35.9658 59.6709 35.9658C58.645 35.9658 57.7573 35.803 57.0079 35.4773C56.2585 35.1517 55.6719 34.69 55.2481 34.0923C54.8243 33.4901 54.5902 32.7763 54.5456 31.9511H56.6198C56.6599 32.4463 56.8205 32.8589 57.1016 33.189C57.387 33.5146 57.7506 33.7577 58.1922 33.9183C58.6383 34.0744 59.1267 34.1525 59.6576 34.1525C60.2419 34.1525 60.7616 34.061 61.2166 33.8782C61.676 33.6908 62.0374 33.4321 62.3006 33.102C62.5637 32.7674 62.6953 32.3771 62.6953 31.931C62.6953 31.5251 62.5793 31.1928 62.3474 30.9341C62.1199 30.6753 61.8099 30.4612 61.4173 30.2917C61.0292 30.1222 60.5899 29.9728 60.0992 29.8434L58.4799 29.4018C57.3826 29.1029 56.5127 28.6635 55.8704 28.0836C55.2325 27.5038 54.9136 26.7365 54.9136 25.7819C54.9136 24.9924 55.1277 24.3032 55.5559 23.7144C55.9841 23.1255 56.564 22.6683 57.2956 22.3427C58.0272 22.0126 58.8524 21.8475 59.7713 21.8475C60.6991 21.8475 61.5177 22.0103 62.2269 22.336C62.9407 22.6616 63.5027 23.1099 63.9131 23.6809C64.3235 24.2474 64.5376 24.8987 64.5555 25.6347H62.5615ZM69.0536 29.636V35.7383H67.0529V22.0349H69.0268V27.1335H69.1539C69.3948 26.5804 69.7628 26.141 70.258 25.8154C70.7531 25.4897 71.3999 25.3269 72.1984 25.3269C72.9032 25.3269 73.5188 25.4719 74.0451 25.7618C74.576 26.0518 74.9863 26.4845 75.2763 27.0599C75.5707 27.6309 75.7179 28.3446 75.7179 29.2011V35.7383H73.7173V29.4419C73.7173 28.6881 73.5232 28.1037 73.1351 27.6889C72.7471 27.2696 72.2073 27.0599 71.5159 27.0599C71.043 27.0599 70.6193 27.1603 70.2446 27.361C69.8743 27.5617 69.5822 27.8561 69.368 28.2442C69.1584 28.6279 69.0536 29.0918 69.0536 29.636ZM78.3877 35.7383V25.4607H80.3883V35.7383H78.3877ZM79.398 23.8749C79.0501 23.8749 78.7512 23.759 78.5014 23.527C78.2561 23.2906 78.1334 23.0096 78.1334 22.6839C78.1334 22.3538 78.2561 22.0728 78.5014 21.8408C78.7512 21.6044 79.0501 21.4862 79.398 21.4862C79.746 21.4862 80.0426 21.6044 80.2879 21.8408C80.5377 22.0728 80.6626 22.3538 80.6626 22.6839C80.6626 23.0096 80.5377 23.2906 80.2879 23.527C80.0426 23.759 79.746 23.8749 79.398 23.8749ZM87.971 25.4607V27.0666H82.1631V25.4607H87.971ZM83.7556 35.7383V24.2697C83.7556 23.6274 83.8961 23.0943 84.1771 22.6705C84.4582 22.2423 84.8306 21.9234 85.2946 21.7137C85.7585 21.4996 86.2625 21.3925 86.8068 21.3925C87.2082 21.3925 87.5517 21.426 87.8372 21.4929C88.1227 21.5554 88.3346 21.6133 88.4728 21.6669L88.0045 23.2861C87.9108 23.2594 87.7903 23.2281 87.6431 23.1924C87.4959 23.1523 87.3175 23.1322 87.1079 23.1322C86.6216 23.1322 86.2737 23.2527 86.064 23.4935C85.8588 23.7344 85.7562 24.0824 85.7562 24.5374V35.7383H83.7556ZM94.8327 25.4607V27.0666H89.2189V25.4607H94.8327ZM90.7244 22.9984H92.725V32.7206C92.725 33.1087 92.783 33.4009 92.899 33.5971C93.015 33.7889 93.1644 33.9205 93.3473 33.9919C93.5347 34.0588 93.7376 34.0923 93.9562 34.0923C94.1168 34.0923 94.2573 34.0811 94.3777 34.0588C94.4982 34.0365 94.5919 34.0187 94.6588 34.0053L95.0201 35.658C94.9041 35.7026 94.7391 35.7472 94.525 35.7918C94.3108 35.8409 94.0432 35.8676 93.722 35.8721C93.1956 35.881 92.705 35.7873 92.25 35.5911C91.795 35.3948 91.427 35.0915 91.1459 34.6811C90.8649 34.2707 90.7244 33.7555 90.7244 33.1354V22.9984Z" fill="#4D4D4D"/>
<defs>
<filter id="filter0_f_4027_313" x="182.977" y="-3.3691" width="34.3085" height="84.8075" filterUnits="userSpaceOnUse" color-interpolation-filters="sRGB">
<feFlood flood-opacity="0" result="BackgroundImageFix"/>
<feBlend mode="normal" in="SourceGraphic" in2="BackgroundImageFix" result="shape"/>
<feGaussianBlur stdDeviation="1.33396" result="effect1_foregroundBlur_4027_313"/>
</filter>
<filter id="filter1_f_4027_313" x="-9.54712" y="39.488" width="220.676" height="59.5249" filterUnits="userSpaceOnUse" color-interpolation-filters="sRGB">
<feFlood flood-opacity="0" result="BackgroundImageFix"/>
<feBlend mode="normal" in="SourceGraphic" in2="BackgroundImageFix" result="shape"/>
<feGaussianBlur stdDeviation="2.80872" result="effect1_foregroundBlur_4027_313"/>
</filter>
<linearGradient id="paint0_linear_4027_313" x1="8.56641" y1="29.2387" x2="192.741" y2="29.2387" gradientUnits="userSpaceOnUse">
<stop stop-color="#D8D8D8"/>
<stop offset="0.477526" stop-color="#D8D8D8"/>
<stop offset="1" stop-color="#B1B1B1"/>
</linearGradient>
<linearGradient id="paint1_linear_4027_313" x1="8.84235" y1="3.85181" x2="192.473" y2="3.85181" gradientUnits="userSpaceOnUse">
<stop stop-color="#959595"/>
<stop offset="0.973454" stop-color="#565656"/>
<stop offset="1" stop-color="white"/>
</linearGradient>
</defs>
</svg> 