<svg width="697" height="508" viewBox="0 0 697 508" fill="none" xmlns="http://www.w3.org/2000/svg">
<g filter="url(#filter0_d_2457_316)">
<mask id="path-1-outside-1_2457_316" maskUnits="userSpaceOnUse" x="21.0381" y="-0.0390625" width="655" height="465" fill="black">
<rect fill="white" x="21.0381" y="-0.0390625" width="655" height="465"/>
<path fill-rule="evenodd" clip-rule="evenodd" d="M472.95 404.522L615.523 261.949C631.631 245.841 631.631 219.724 615.523 203.616L472.95 61.0421C456.841 44.9339 430.725 44.9339 414.617 61.0421C398.508 77.1503 398.508 103.267 414.617 119.375L487.08 191.839L111.286 191.838C88.5053 191.838 70.0381 210.306 70.0381 233.086C70.0381 255.867 88.5053 274.334 111.286 274.334L486.472 274.334L414.617 346.189C398.508 362.298 398.508 388.414 414.617 404.522C430.725 420.631 456.841 420.631 472.95 404.522Z"/>
</mask>
<path fill-rule="evenodd" clip-rule="evenodd" d="M472.95 404.522L615.523 261.949C631.631 245.841 631.631 219.724 615.523 203.616L472.95 61.0421C456.841 44.9339 430.725 44.9339 414.617 61.0421C398.508 77.1503 398.508 103.267 414.617 119.375L487.08 191.839L111.286 191.838C88.5053 191.838 70.0381 210.306 70.0381 233.086C70.0381 255.867 88.5053 274.334 111.286 274.334L486.472 274.334L414.617 346.189C398.508 362.298 398.508 388.414 414.617 404.522C430.725 420.631 456.841 420.631 472.95 404.522Z" fill="#3FE2E0"/>
<path d="M615.523 203.616L581.549 237.59V237.59L615.523 203.616ZM472.95 61.0421L506.924 27.0679L506.924 27.0678L472.95 61.0421ZM414.617 61.0421L448.591 95.0163L414.617 61.0421ZM414.617 119.375L380.642 153.349V153.349L414.617 119.375ZM487.08 191.839L487.08 239.885L603.075 239.885L521.054 157.864L487.08 191.839ZM111.286 191.838L111.286 143.792H111.286L111.286 191.838ZM111.286 274.334L111.286 226.287H111.286V274.334ZM486.472 274.334L520.446 308.308L602.467 226.287L486.472 226.287V274.334ZM414.617 346.189L380.642 312.215L414.617 346.189ZM581.549 227.975L438.975 370.548L506.924 438.497L649.497 295.923L581.549 227.975ZM581.549 237.59C578.894 234.935 578.894 230.63 581.549 227.975L649.497 295.923C684.369 261.051 684.369 204.513 649.497 169.642L581.549 237.59ZM438.975 95.0163L581.549 237.59L649.497 169.642L506.924 27.0679L438.975 95.0163ZM448.591 95.0163C445.935 97.6716 441.631 97.6715 438.975 95.0163L506.924 27.0678C472.052 -7.80376 415.514 -7.80379 380.642 27.0679L448.591 95.0163ZM448.591 85.4009C451.246 88.0561 451.246 92.3611 448.591 95.0163L380.642 27.0679C345.771 61.9395 345.771 118.478 380.642 153.349L448.591 85.4009ZM521.054 157.864L448.591 85.4009L380.642 153.349L453.106 225.813L521.054 157.864ZM111.286 239.885L487.08 239.885L487.08 143.792L111.286 143.792L111.286 239.885ZM118.085 233.086C118.085 236.841 115.041 239.885 111.286 239.885L111.286 143.792C61.9699 143.792 21.9913 183.77 21.9913 233.086H118.085ZM111.286 226.287C115.041 226.287 118.085 229.331 118.085 233.086H21.9913C21.9913 282.402 61.9696 322.381 111.286 322.381L111.286 226.287ZM486.472 226.287L111.286 226.287L111.286 322.381L486.472 322.381V226.287ZM448.591 380.164L520.446 308.308L452.498 240.36L380.642 312.215L448.591 380.164ZM448.591 370.548C451.246 373.203 451.246 377.508 448.591 380.164L380.642 312.215C345.771 347.087 345.771 403.625 380.642 438.497L448.591 370.548ZM438.975 370.548C441.631 367.893 445.936 367.893 448.591 370.548L380.642 438.497C415.514 473.368 472.052 473.368 506.924 438.497L438.975 370.548Z" fill="white" mask="url(#path-1-outside-1_2457_316)"/>
</g>
<defs>
<filter id="filter0_d_2457_316" x="0.637072" y="0.914062" width="696.368" height="506.443" filterUnits="userSpaceOnUse" color-interpolation-filters="sRGB">
<feFlood flood-opacity="0" result="BackgroundImageFix"/>
<feColorMatrix in="SourceAlpha" type="matrix" values="0 0 0 0 0 0 0 0 0 0 0 0 0 0 0 0 0 0 127 0" result="hardAlpha"/>
<feOffset dy="21.3541"/>
<feGaussianBlur stdDeviation="10.6771"/>
<feComposite in2="hardAlpha" operator="out"/>
<feColorMatrix type="matrix" values="0 0 0 0 0 0 0 0 0 0 0 0 0 0 0 0 0 0 0.25 0"/>
<feBlend mode="normal" in2="BackgroundImageFix" result="effect1_dropShadow_2457_316"/>
<feBlend mode="normal" in="SourceGraphic" in2="effect1_dropShadow_2457_316" result="shape"/>
</filter>
</defs>
</svg> 