<svg width="1280" height="720" viewBox="0 0 1280 720" fill="none" xmlns="http://www.w3.org/2000/svg">
<g clip-path="url(#clip0_2557_546)">
<rect width="1280" height="720" fill="#6E30FF"/>
<g filter="url(#filter0_f_2557_546)">
<path d="M1177.5 -77.0742C1270.05 -77.0742 1345.08 -2.04891 1345.08 90.5C1345.08 183.049 1270.05 258.075 1177.5 258.075C1084.95 258.075 1009.93 183.049 1009.93 90.5C1009.93 -2.04884 1084.95 -77.0741 1177.5 -77.0742Z" stroke="#814AFF" stroke-width="25.9485"/>
<circle cx="1177.5" cy="90.5" r="243.131" stroke="#814AFF" stroke-width="42.7387"/>
<path d="M763.577 508.912L657.279 620.158C653.614 624.044 651.628 629.219 651.753 634.56C651.877 639.901 654.102 644.977 657.944 648.688L769.19 754.986C771.106 756.819 773.364 758.256 775.835 759.214C778.307 760.173 780.943 760.635 783.593 760.573C786.244 760.511 788.856 759.927 791.28 758.855C793.704 757.782 795.893 756.241 797.72 754.321L904.019 643.076C905.844 641.166 907.274 638.915 908.228 636.452C909.182 633.989 909.641 631.361 909.578 628.721C909.515 626.08 908.931 623.478 907.861 621.063C906.791 618.648 905.255 616.468 903.34 614.648L792.05 508.293C788.19 504.603 783.023 502.596 777.685 502.712C772.347 502.828 767.273 505.058 763.577 508.912ZM860.955 629.711L782.509 711.865L700.355 633.419L778.801 551.266L860.955 629.711Z" fill="#3FE2E0"/>
<path d="M-161.016 748.024C-158.296 756.097 -152.571 762.809 -145.031 766.763C-137.492 770.717 -128.719 771.608 -120.539 769.251C-112.36 766.894 -105.403 761.47 -101.117 754.109C-96.8318 746.747 -95.5485 738.015 -97.533 729.73C-108.311 692.145 -103.731 651.814 -84.802 617.609C-65.8725 583.404 -34.1437 558.126 3.40484 547.338C40.9534 536.549 81.2458 541.133 115.418 560.081C149.59 579.028 174.844 610.788 185.622 648.372C192 670.62 189.286 694.493 178.079 714.738C166.873 734.984 148.091 749.944 125.865 756.328C103.639 762.711 79.7886 759.996 59.5626 748.779C39.3366 737.561 24.3907 718.761 18.013 696.513C16.0359 689.602 16.8835 682.189 20.3672 675.903C23.851 669.617 29.6861 664.974 36.5899 662.995C43.4937 661.016 50.9008 661.864 57.1805 665.351C63.4603 668.838 68.0988 674.679 70.0759 681.59C72.4994 690.032 78.1746 697.165 85.8524 701.42C93.5301 705.674 102.582 706.702 111.016 704.276C119.451 701.85 126.576 696.17 130.826 688.485C135.077 680.799 136.103 671.739 133.679 663.296C126.855 639.516 110.874 619.424 89.2501 607.439C67.6261 595.454 42.1309 592.559 18.3741 599.39C-5.38279 606.22 -25.4553 622.218 -37.4285 643.863C-49.4018 665.507 -52.2943 691.027 -45.4701 714.807C-33.4385 752.901 -7.03769 784.796 28.1197 803.712C63.2771 822.627 104.419 827.072 142.798 816.1C181.178 805.129 213.77 779.606 233.644 744.958C253.519 710.31 259.109 669.27 249.227 630.561C233.368 576.379 196.723 530.684 147.306 503.465C97.8879 476.246 39.7151 469.715 -14.4984 485.302C-68.7119 500.888 -114.557 537.323 -142.012 586.643C-169.467 635.963 -176.299 694.157 -161.016 748.505L-161.016 748.024Z" fill="#3FE2E0"/>
<path d="M59.8873 -261.32C54.9281 -263.64 49.4489 -264.617 43.9968 -264.155C38.5448 -263.693 33.3112 -261.808 28.8197 -258.688L-239.544 -72.1575C-244.083 -69.0604 -247.719 -64.8166 -250.084 -59.8563C-252.449 -54.896 -253.457 -49.3961 -253.008 -43.916C-252.558 -38.4359 -250.667 -33.1708 -247.525 -28.6552C-244.383 -24.1396 -240.103 -20.5347 -235.12 -18.2066L60.8706 120.76C65.8013 123.121 71.2703 124.13 76.7154 123.681C82.1605 123.232 87.3855 121.342 91.8563 118.206C96.3627 115.086 99.9642 110.831 102.296 105.87C104.628 100.909 105.608 95.418 105.137 89.9532L76.8707 -235.56C76.5622 -240.968 74.8282 -246.199 71.8455 -250.724C68.8628 -255.248 64.737 -258.904 59.8873 -261.32ZM38.9704 41.517L-158.981 -51.7849L20.6945 -176.866L38.9704 41.517Z" fill="#3FE2E0"/>
<path d="M993.786 77.6852C993.786 62.8 987.873 48.5245 977.348 37.9991C966.823 27.4737 952.547 21.5605 937.662 21.5605C922.777 21.5605 908.501 27.4737 897.976 37.9991C887.45 48.5245 881.537 62.8 881.537 77.6852C881.537 79.9914 882.453 82.2031 884.084 83.8338C885.715 85.4645 887.926 86.3806 890.232 86.3806C892.539 86.3806 894.75 85.4645 896.381 83.8338C898.012 82.2031 898.928 79.9914 898.928 77.6852C898.928 67.4124 903.009 57.5602 910.273 50.2962C917.537 43.0322 927.389 38.9513 937.662 38.9513C947.935 38.9513 957.787 43.0322 965.051 50.2962C972.315 57.5602 976.396 67.4124 976.396 77.6852C976.396 83.7651 973.98 89.596 969.681 93.8951C965.382 98.1942 959.551 100.609 953.472 100.609C947.392 100.609 941.561 98.1942 937.262 93.8951C932.962 89.596 930.547 83.7651 930.547 77.6852C930.547 75.7984 931.297 73.9888 932.631 72.6546C933.966 71.3204 935.775 70.5708 937.662 70.5708C939.549 70.5708 941.358 71.3204 942.692 72.6546C944.026 73.9888 944.776 75.7984 944.776 77.6852C944.776 79.9914 945.692 82.2031 947.323 83.8338C948.954 85.4645 951.165 86.3806 953.472 86.3806C955.778 86.3806 957.99 85.4645 959.62 83.8338C961.251 82.2031 962.167 79.9914 962.167 77.6852C962.167 71.1861 959.585 64.9531 954.99 60.3575C950.394 55.7619 944.161 53.1801 937.662 53.1801C931.163 53.1801 924.93 55.7619 920.334 60.3575C915.738 64.9531 913.157 71.1861 913.157 77.6852C913.157 88.3774 917.404 98.6317 924.965 106.192C932.525 113.753 942.779 118 953.472 118C964.164 118 974.418 113.753 981.979 106.192C989.539 98.6317 993.786 88.3774 993.786 77.6852Z" fill="#3FE2E0"/>
<path d="M1192.02 -6.97053L1183.91 55.5506C1183.77 56.6257 1183.84 57.7185 1184.12 58.7661C1184.4 59.8138 1184.88 60.7957 1185.54 61.6553C1186.21 62.5148 1187.03 63.2351 1187.97 63.7748C1188.91 64.3144 1189.95 64.6627 1191.03 64.7997L1253.58 72.9076C1255.75 73.1887 1257.94 72.5971 1259.68 71.2627C1261.41 69.9283 1262.54 67.9602 1262.83 65.7906L1270.94 3.23944C1271.21 1.06627 1270.61 -1.12648 1269.27 -2.85954C1267.93 -4.59261 1265.96 -5.72513 1263.79 -6.00966L1201.27 -14.0876C1200.19 -14.2308 1199.1 -14.1601 1198.05 -13.8795C1197 -13.5989 1196.02 -13.114 1195.16 -12.4526C1194.3 -11.7912 1193.58 -10.9663 1193.04 -10.0255C1192.5 -9.08472 1192.15 -8.04643 1192.02 -6.97053ZM1207.33 3.32953L1253.49 9.33541L1247.48 55.4906L1201.33 49.4847L1207.33 3.32953Z" fill="#3FE2E0"/>
<path d="M0 0H1280V720H0V0Z" fill="url(#paint0_linear_2557_546)"/>
</g>
</g>
<defs>
<filter id="filter0_f_2557_546" x="-273.911" y="-285.067" width="1736.71" height="1127.87" filterUnits="userSpaceOnUse" color-interpolation-filters="sRGB">
<feFlood flood-opacity="0" result="BackgroundImageFix"/>
<feBlend mode="normal" in="SourceGraphic" in2="BackgroundImageFix" result="shape"/>
<feGaussianBlur stdDeviation="10.4" result="effect1_foregroundBlur_2557_546"/>
</filter>
<linearGradient id="paint0_linear_2557_546" x1="1819.5" y1="-34.0001" x2="713.5" y2="394.5" gradientUnits="userSpaceOnUse">
<stop stop-color="#61DAFB"/>
<stop offset="1" stop-color="#D9D9D9" stop-opacity="0"/>
</linearGradient>
<clipPath id="clip0_2557_546">
<rect width="1280" height="720" fill="white"/>
</clipPath>
</defs>
</svg>
