<svg width="1530" height="2272" viewBox="0 0 1530 2272" fill="none" xmlns="http://www.w3.org/2000/svg">
<mask id="path-1-outside-1_3961_356" maskUnits="userSpaceOnUse" x="0.748047" y="0.722656" width="1529" height="2271" fill="black">
<rect fill="white" x="0.748047" y="0.722656" width="1529" height="2271"/>
<path d="M812.326 69.5924C823.97 63.7879 837.276 62.228 849.946 65.1823C862.617 68.1365 873.86 75.4202 881.737 85.776C889.613 96.1318 893.629 108.911 893.092 121.911C892.555 134.91 887.498 147.315 878.795 156.986C870.092 166.657 858.286 172.988 845.415 174.887L828.81 308.98C896.256 317.243 965.847 339.428 1015.47 382.239C1037.96 401.886 1053.03 431.669 1062.89 464.233C1135.42 485.241 1199.85 514.635 1249.64 552.44C1402.52 667.91 1404.37 1106.69 1266.04 1225.63C1247.24 1241.74 1225.92 1256.47 1202.53 1269.82C1209.85 1268.85 1217.26 1268.35 1224.7 1268.35C1246.86 1268.32 1268.81 1272.66 1289.29 1281.12C1309.77 1289.58 1328.38 1301.99 1344.06 1317.65C1359.74 1333.31 1372.18 1351.9 1380.67 1372.37C1389.15 1392.84 1393.52 1414.78 1393.52 1436.94C1393.57 1470.34 1383.7 1503 1365.18 1530.79C1358.36 1541.03 1350.48 1550.43 1341.7 1558.87C1394.32 1654.4 1418.69 1762.99 1411.87 1871.94C1421.33 1878.31 1429.92 1886 1437.36 1894.83C1454.34 1914.98 1464.47 1940.02 1466.26 1966.32C1468.05 1992.62 1461.42 2018.8 1447.32 2041.08C1442.43 2048.78 1434.71 2054.24 1425.81 2056.27C1416.92 2058.31 1407.59 2056.76 1399.84 2051.95C1392.08 2047.15 1386.54 2039.48 1384.4 2030.61C1382.27 2021.75 1383.72 2012.39 1388.43 2004.59C1392.99 1997.02 1395.78 1988.53 1396.62 1979.74C1397.46 1970.94 1396.32 1962.07 1393.28 1953.78C1386.54 1941.22 1375.66 1931.36 1362.49 1925.89C1349.32 1920.42 1334.66 1919.67 1321 1923.76C1314.33 1926.53 1308.28 1930.61 1303.22 1935.77C1270.89 1968.1 1219.39 1935.77 1237.86 1907.82C1251.48 1886.43 1271.41 1869.8 1294.9 1860.25C1309.25 1854.28 1324.5 1851.1 1339.85 1850.77C1340.66 1823.93 1339.3 1797.05 1335.78 1770.42C1328.04 1709.5 1308.9 1650.63 1279.41 1596.88C1261.76 1602.92 1243.27 1605.99 1224.7 1605.99V1699.52C1224.7 1802.3 1177.06 1881.68 1103.46 1937.66C1099.74 1958.46 1094.03 1978.92 1086.39 1998.73C1070.53 2039.85 1046.66 2077.4 1016.16 2109.2C949.102 2173.89 859.22 2209.5 766.053 2208.28C602.537 2208.28 459.284 2108.42 428.512 1939.13C353.815 1883.07 305.331 1803.2 305.331 1699.52V1605.99C286.698 1605.99 268.14 1602.9 250.424 1596.81C220.917 1650.58 201.766 1709.47 194.019 1770.42C190.491 1797.09 189.131 1824 189.947 1850.89C205.444 1851.13 220.853 1854.27 235.354 1860.25C258.735 1869.88 278.576 1886.5 292.165 1907.82C310.64 1935.77 259.14 1968.1 226.809 1935.77C221.748 1930.61 215.7 1926.53 209.027 1923.76C195.364 1919.67 180.708 1920.42 167.536 1925.89C154.365 1931.36 143.487 1941.21 136.742 1953.78C133.688 1962.08 132.559 1970.97 133.439 1979.77C134.319 1988.57 137.186 1997.06 141.823 2004.59C145.733 2012.38 146.582 2021.35 144.202 2029.74C141.823 2038.13 136.388 2045.32 128.969 2049.9C121.55 2054.48 112.685 2056.11 104.121 2054.48C95.5574 2052.85 87.9153 2048.06 82.7023 2041.08C68.7263 2018.77 62.1984 1992.6 64.0588 1966.34C65.9192 1940.08 76.0723 1915.09 93.0539 1894.97C100.346 1886.33 108.735 1878.78 117.959 1872.49C111.026 1763.3 135.418 1654.44 188.182 1558.72C179.466 1550.32 171.635 1540.97 164.854 1530.79C146.332 1503 136.469 1470.34 136.515 1436.94C136.515 1414.78 140.884 1392.84 149.37 1372.37C157.857 1351.9 170.296 1333.31 185.975 1317.65C201.654 1301.99 220.266 1289.58 240.746 1281.12C261.227 1272.66 283.174 1268.32 305.332 1268.35C312.183 1268.35 319.002 1268.77 325.754 1269.59C302.724 1256.32 281.763 1241.67 263.298 1225.63C124.735 1107.39 126.814 668.372 279.696 552.44C329.74 514.522 394.416 485.062 467.193 464.042C477.088 431.552 492.178 401.801 514.565 382.239C577.785 327.118 675.636 306.19 758.579 305.147L757.042 304.789L805.491 165.579C794.787 158.183 786.999 147.283 783.47 134.76C779.941 122.238 780.894 108.876 786.161 96.9792C791.429 85.0827 800.682 75.397 812.326 69.5924Z"/>
</mask>
<path d="M812.326 69.5924C823.97 63.7879 837.276 62.228 849.946 65.1823C862.617 68.1365 873.86 75.4202 881.737 85.776C889.613 96.1318 893.629 108.911 893.092 121.911C892.555 134.91 887.498 147.315 878.795 156.986C870.092 166.657 858.286 172.988 845.415 174.887L828.81 308.98C896.256 317.243 965.847 339.428 1015.47 382.239C1037.96 401.886 1053.03 431.669 1062.89 464.233C1135.42 485.241 1199.85 514.635 1249.64 552.44C1402.52 667.91 1404.37 1106.69 1266.04 1225.63C1247.24 1241.74 1225.92 1256.47 1202.53 1269.82C1209.85 1268.85 1217.26 1268.35 1224.7 1268.35C1246.86 1268.32 1268.81 1272.66 1289.29 1281.12C1309.77 1289.58 1328.38 1301.99 1344.06 1317.65C1359.74 1333.31 1372.18 1351.9 1380.67 1372.37C1389.15 1392.84 1393.52 1414.78 1393.52 1436.94C1393.57 1470.34 1383.7 1503 1365.18 1530.79C1358.36 1541.03 1350.48 1550.43 1341.7 1558.87C1394.32 1654.4 1418.69 1762.99 1411.87 1871.94C1421.33 1878.31 1429.92 1886 1437.36 1894.83C1454.34 1914.98 1464.47 1940.02 1466.26 1966.32C1468.05 1992.62 1461.42 2018.8 1447.32 2041.08C1442.43 2048.78 1434.71 2054.24 1425.81 2056.27C1416.92 2058.31 1407.59 2056.76 1399.84 2051.95C1392.08 2047.15 1386.54 2039.48 1384.4 2030.61C1382.27 2021.75 1383.72 2012.39 1388.43 2004.59C1392.99 1997.02 1395.78 1988.53 1396.62 1979.74C1397.46 1970.94 1396.32 1962.07 1393.28 1953.78C1386.54 1941.22 1375.66 1931.36 1362.49 1925.89C1349.32 1920.42 1334.66 1919.67 1321 1923.76C1314.33 1926.53 1308.28 1930.61 1303.22 1935.77C1270.89 1968.1 1219.39 1935.77 1237.86 1907.82C1251.48 1886.43 1271.41 1869.8 1294.9 1860.25C1309.25 1854.28 1324.5 1851.1 1339.85 1850.77C1340.66 1823.93 1339.3 1797.05 1335.78 1770.42C1328.04 1709.5 1308.9 1650.63 1279.41 1596.88C1261.76 1602.92 1243.27 1605.99 1224.7 1605.99V1699.52C1224.7 1802.3 1177.06 1881.68 1103.46 1937.66C1099.74 1958.46 1094.03 1978.92 1086.39 1998.73C1070.53 2039.85 1046.66 2077.4 1016.16 2109.2C949.102 2173.89 859.22 2209.5 766.053 2208.28C602.537 2208.28 459.284 2108.42 428.512 1939.13C353.815 1883.07 305.331 1803.2 305.331 1699.52V1605.99C286.698 1605.99 268.14 1602.9 250.424 1596.81C220.917 1650.58 201.766 1709.47 194.019 1770.42C190.491 1797.09 189.131 1824 189.947 1850.89C205.444 1851.13 220.853 1854.27 235.354 1860.25C258.735 1869.88 278.576 1886.5 292.165 1907.82C310.64 1935.77 259.14 1968.1 226.809 1935.77C221.748 1930.61 215.7 1926.53 209.027 1923.76C195.364 1919.67 180.708 1920.42 167.536 1925.89C154.365 1931.36 143.487 1941.21 136.742 1953.78C133.688 1962.08 132.559 1970.97 133.439 1979.77C134.319 1988.57 137.186 1997.06 141.823 2004.59C145.733 2012.38 146.582 2021.35 144.202 2029.74C141.823 2038.13 136.388 2045.32 128.969 2049.9C121.55 2054.48 112.685 2056.11 104.121 2054.48C95.5574 2052.85 87.9153 2048.06 82.7023 2041.08C68.7263 2018.77 62.1984 1992.6 64.0588 1966.34C65.9192 1940.08 76.0723 1915.09 93.0539 1894.97C100.346 1886.33 108.735 1878.78 117.959 1872.49C111.026 1763.3 135.418 1654.44 188.182 1558.72C179.466 1550.32 171.635 1540.97 164.854 1530.79C146.332 1503 136.469 1470.34 136.515 1436.94C136.515 1414.78 140.884 1392.84 149.37 1372.37C157.857 1351.9 170.296 1333.31 185.975 1317.65C201.654 1301.99 220.266 1289.58 240.746 1281.12C261.227 1272.66 283.174 1268.32 305.332 1268.35C312.183 1268.35 319.002 1268.77 325.754 1269.59C302.724 1256.32 281.763 1241.67 263.298 1225.63C124.735 1107.39 126.814 668.372 279.696 552.44C329.74 514.522 394.416 485.062 467.193 464.042C477.088 431.552 492.178 401.801 514.565 382.239C577.785 327.118 675.636 306.19 758.579 305.147L757.042 304.789L805.491 165.579C794.787 158.183 786.999 147.283 783.47 134.76C779.941 122.238 780.894 108.876 786.161 96.9792C791.429 85.0827 800.682 75.397 812.326 69.5924Z" fill="#1E1E1E"/>
<path d="M812.326 69.5924L784.22 13.2097L784.219 13.2098L812.326 69.5924ZM849.946 65.1823L864.251 3.82785L864.251 3.82784L849.946 65.1823ZM881.737 85.776L931.881 47.6383L931.881 47.6378L881.737 85.776ZM893.092 121.911L956.038 124.511L956.038 124.51L893.092 121.911ZM878.795 156.986L925.624 199.129L925.624 199.129L878.795 156.986ZM845.415 174.887L836.218 112.562L788.785 119.562L782.893 167.145L845.415 174.887ZM828.81 308.98L766.287 301.238L758.535 363.842L821.149 371.513L828.81 308.98ZM1015.47 382.239L1056.93 334.799L1056.78 334.667L1056.62 334.536L1015.47 382.239ZM1062.89 464.233L1002.6 482.494L1012.51 515.23L1045.37 524.746L1062.89 464.233ZM1249.64 552.44L1211.55 602.616L1211.61 602.664L1211.67 602.712L1249.64 552.44ZM1266.04 1225.63L1307.04 1273.46L1307.07 1273.43L1307.11 1273.4L1266.04 1225.63ZM1202.53 1269.82L1171.31 1215.1L1210.8 1332.27L1202.53 1269.82ZM1224.7 1268.35L1224.7 1331.35L1224.75 1331.35L1224.79 1331.35L1224.7 1268.35ZM1289.29 1281.12L1313.34 1222.89L1313.34 1222.89L1289.29 1281.12ZM1344.06 1317.65L1388.58 1273.07L1388.58 1273.07L1344.06 1317.65ZM1380.67 1372.37L1438.86 1348.24L1438.86 1348.24L1380.67 1372.37ZM1393.52 1436.94L1330.52 1436.94L1330.52 1436.98L1330.52 1437.03L1393.52 1436.94ZM1365.18 1530.79L1417.61 1565.73L1417.61 1565.73L1365.18 1530.79ZM1341.7 1558.87L1298.04 1513.45L1263.2 1546.94L1286.52 1589.27L1341.7 1558.87ZM1411.87 1871.94L1349 1868.01L1346.75 1904L1376.65 1924.17L1411.87 1871.94ZM1437.36 1894.83L1485.53 1854.22L1485.53 1854.22L1437.36 1894.83ZM1466.26 1966.32L1529.12 1962.04L1529.12 1962.04L1466.26 1966.32ZM1447.32 2041.08L1500.51 2074.85L1500.53 2074.81L1500.56 2074.77L1447.32 2041.08ZM1425.81 2056.27L1439.88 2117.68L1439.88 2117.68L1425.81 2056.27ZM1399.84 2051.95L1366.65 2105.51L1366.65 2105.51L1399.84 2051.95ZM1384.4 2030.61L1323.15 2045.36L1323.15 2045.36L1384.4 2030.61ZM1388.43 2004.59L1442.35 2037.18L1442.39 2037.12L1442.42 2037.06L1388.43 2004.59ZM1396.62 1979.74L1459.34 1985.72L1459.34 1985.72L1396.62 1979.74ZM1393.28 1953.78L1452.44 1932.11L1450.9 1927.92L1448.79 1923.99L1393.28 1953.78ZM1362.49 1925.89L1386.66 1867.71L1386.66 1867.71L1362.49 1925.89ZM1321 1923.76L1302.93 1863.41L1299.84 1864.33L1296.86 1865.57L1321 1923.76ZM1303.22 1935.77L1347.77 1980.32L1347.97 1980.11L1348.18 1979.9L1303.22 1935.77ZM1237.86 1907.82L1290.41 1942.57L1290.72 1942.11L1291.01 1941.65L1237.86 1907.82ZM1294.9 1860.25L1318.64 1918.61L1318.87 1918.52L1319.1 1918.42L1294.9 1860.25ZM1339.85 1850.77L1341.22 1913.75L1401.02 1912.46L1402.83 1852.67L1339.85 1850.77ZM1335.78 1770.42L1273.28 1778.36L1273.3 1778.52L1273.32 1778.68L1335.78 1770.42ZM1279.41 1596.88L1334.65 1566.58L1309.15 1520.09L1259 1537.28L1279.41 1596.88ZM1224.7 1605.99L1224.7 1542.99L1161.7 1542.99V1605.99H1224.7ZM1224.7 1699.52L1287.7 1699.52V1699.52H1224.7ZM1103.46 1937.66L1065.32 1887.52L1045.77 1902.39L1041.45 1926.56L1103.46 1937.66ZM1086.39 1998.73L1145.16 2021.41L1145.16 2021.41L1086.39 1998.73ZM1016.16 2109.2L1059.9 2154.55L1060.78 2153.69L1061.64 2152.81L1016.16 2109.2ZM766.053 2208.28L766.878 2145.28L766.466 2145.28L766.053 2145.28L766.053 2208.28ZM428.512 1939.13L490.496 1927.86L486.08 1903.56L466.329 1888.74L428.512 1939.13ZM305.331 1699.52L242.331 1699.52L242.331 1699.52L305.331 1699.52ZM305.331 1605.99H368.331V1542.99L305.332 1542.99L305.331 1605.99ZM250.424 1596.81L270.916 1537.23L220.724 1519.97L195.192 1566.5L250.424 1596.81ZM194.019 1770.42L256.475 1778.68L256.496 1778.52L256.516 1778.36L194.019 1770.42ZM189.947 1850.89L126.976 1852.8L128.803 1912.93L188.956 1913.88L189.947 1850.89ZM235.354 1860.25L211.339 1918.49L211.347 1918.5L211.355 1918.5L235.354 1860.25ZM292.165 1907.82L239.035 1941.68L239.32 1942.13L239.613 1942.57L292.165 1907.82ZM226.809 1935.77L181.848 1979.9L182.054 1980.11L182.261 1980.32L226.809 1935.77ZM209.027 1923.76L233.167 1865.57L230.187 1864.33L227.095 1863.41L209.027 1923.76ZM167.536 1925.89L143.372 1867.71L143.371 1867.71L167.536 1925.89ZM136.742 1953.78L81.2326 1923.99L79.1427 1927.88L77.6169 1932.03L136.742 1953.78ZM133.439 1979.77L70.7513 1986.04L70.7514 1986.04L133.439 1979.77ZM141.823 2004.59L198.135 1976.34L196.907 1973.89L195.471 1971.56L141.823 2004.59ZM144.202 2029.74L204.811 2046.94L204.811 2046.94L144.202 2029.74ZM128.969 2049.9L162.057 2103.51L162.057 2103.51L128.969 2049.9ZM104.121 2054.48L92.319 2116.36L92.3194 2116.36L104.121 2054.48ZM82.7023 2041.08L29.3136 2074.52L30.6737 2076.69L32.2055 2078.75L82.7023 2041.08ZM64.0588 1966.34L1.2163 1961.88L1.21628 1961.88L64.0588 1966.34ZM93.0539 1894.97L44.914 1854.33L44.9138 1854.33L93.0539 1894.97ZM117.959 1872.49L153.471 1924.53L183.106 1904.3L180.833 1868.5L117.959 1872.49ZM188.182 1558.72L243.355 1589.13L266.658 1546.86L231.901 1513.36L188.182 1558.72ZM164.854 1530.79L112.429 1565.73L112.429 1565.73L164.854 1530.79ZM136.515 1436.94L199.515 1437.03L199.515 1436.98L199.515 1436.94L136.515 1436.94ZM149.37 1372.37L91.1742 1348.24L91.1741 1348.24L149.37 1372.37ZM185.975 1317.65L141.458 1273.07L141.458 1273.07L185.975 1317.65ZM240.746 1281.12L216.697 1222.89L216.697 1222.89L240.746 1281.12ZM305.332 1268.35L305.246 1331.35L305.289 1331.35L305.332 1331.35L305.332 1268.35ZM325.754 1269.59L318.133 1332.13L357.211 1215.01L325.754 1269.59ZM263.298 1225.63L304.62 1178.07L304.407 1177.89L304.193 1177.71L263.298 1225.63ZM279.696 552.44L241.649 502.226L241.639 502.234L241.629 502.241L279.696 552.44ZM467.193 464.042L484.675 524.567L517.504 515.085L527.459 482.397L467.193 464.042ZM514.565 382.239L473.163 334.753L473.136 334.776L473.11 334.799L514.565 382.239ZM758.579 305.147L759.371 368.142L772.885 243.793L758.579 305.147ZM757.042 304.789L697.543 284.081L674.518 350.237L742.737 366.143L757.042 304.789ZM805.491 165.579L864.991 186.286L880.751 141.004L841.304 113.748L805.491 165.579ZM783.47 134.76L722.831 151.847L722.831 151.847L783.47 134.76ZM786.161 96.9792L728.556 71.4717L728.556 71.4718L786.161 96.9792ZM812.326 69.5924L840.433 125.975C838.95 126.714 837.256 126.913 835.642 126.537L849.946 65.1823L864.251 3.82784C837.295 -2.4571 808.991 0.861431 784.22 13.2097L812.326 69.5924ZM849.946 65.1823L835.641 126.537C834.025 126.16 832.594 125.232 831.592 123.914L881.737 85.776L931.881 47.6378C915.127 25.6088 891.209 10.1132 864.251 3.82785L849.946 65.1823ZM881.737 85.776L831.592 123.914C830.589 122.596 830.077 120.968 830.146 119.311L893.092 121.911L956.038 124.51C957.181 96.8544 948.636 69.6679 931.881 47.6383L881.737 85.776ZM893.092 121.911L830.146 119.311C830.214 117.653 830.859 116.073 831.966 114.843L878.795 156.986L925.624 199.129C944.138 178.557 954.896 152.168 956.038 124.511L893.092 121.911ZM878.795 156.986L831.966 114.843C833.075 113.61 834.579 112.804 836.218 112.562L845.415 174.887L854.612 237.212C881.994 233.172 907.108 219.703 925.624 199.129L878.795 156.986ZM845.415 174.887L782.893 167.145L766.287 301.238L828.81 308.98L891.332 316.723L907.938 182.63L845.415 174.887ZM828.81 308.98L821.149 371.513C881.983 378.965 937.753 398.395 974.321 429.941L1015.47 382.239L1056.62 334.536C993.941 280.461 910.529 255.52 836.47 246.448L828.81 308.98ZM1015.47 382.239L974.018 429.679C983.897 438.311 994.371 455.329 1002.6 482.494L1062.89 464.233L1123.19 445.972C1111.69 408.008 1092.02 365.462 1056.93 334.799L1015.47 382.239ZM1062.89 464.233L1045.37 524.746C1112.91 544.31 1169.67 570.819 1211.55 602.616L1249.64 552.44L1287.74 502.264C1230.03 458.452 1157.93 426.172 1080.42 403.72L1062.89 464.233ZM1249.64 552.44L1211.67 602.712C1235.48 620.694 1258.78 656.094 1276.32 709.325C1293.47 761.394 1303 824.307 1304.05 888.769C1305.11 953.204 1297.66 1016.56 1282.72 1069.34C1267.37 1123.54 1246.14 1159.66 1224.97 1177.86L1266.04 1225.63L1307.11 1273.4C1355.11 1232.13 1385.51 1168.8 1403.95 1103.67C1422.79 1037.12 1431.26 961.263 1430.04 886.702C1428.81 812.167 1417.86 736.3 1395.99 669.905C1374.5 604.67 1340.25 541.922 1287.61 502.168L1249.64 552.44ZM1266.04 1225.63L1225.04 1177.8C1209.67 1190.97 1191.72 1203.45 1171.31 1215.1L1202.53 1269.82L1233.75 1324.54C1260.13 1309.49 1284.8 1292.52 1307.04 1273.46L1266.04 1225.63ZM1202.53 1269.82L1210.8 1332.27C1215.4 1331.66 1220.04 1331.35 1224.7 1331.35L1224.7 1268.35L1224.7 1205.35C1214.47 1205.35 1204.3 1206.03 1194.25 1207.36L1202.53 1269.82ZM1224.7 1268.35L1224.79 1331.35C1238.67 1331.34 1252.41 1334.05 1265.24 1339.35L1289.29 1281.12L1313.34 1222.89C1285.2 1211.27 1255.06 1205.31 1224.62 1205.35L1224.7 1268.35ZM1289.29 1281.12L1265.24 1339.35C1278.07 1344.65 1289.72 1352.42 1299.54 1362.23L1344.06 1317.65L1388.58 1273.07C1367.04 1251.56 1341.47 1234.51 1313.34 1222.89L1289.29 1281.12ZM1344.06 1317.65L1299.54 1362.23C1309.36 1372.03 1317.15 1383.68 1322.47 1396.5L1380.67 1372.37L1438.86 1348.24C1427.2 1320.12 1410.12 1294.58 1388.58 1273.07L1344.06 1317.65ZM1380.67 1372.37L1322.47 1396.5C1327.78 1409.32 1330.52 1423.06 1330.52 1436.94L1393.52 1436.94L1456.52 1436.94C1456.52 1406.5 1450.52 1376.36 1438.86 1348.24L1380.67 1372.37ZM1393.52 1436.94L1330.52 1437.03C1330.55 1457.96 1324.37 1478.43 1312.76 1495.85L1365.18 1530.79L1417.61 1565.73C1443.04 1527.57 1456.58 1482.72 1456.52 1436.85L1393.52 1436.94ZM1365.18 1530.79L1312.76 1495.85C1308.49 1502.26 1303.54 1508.16 1298.04 1513.45L1341.7 1558.87L1385.36 1604.29C1397.41 1592.71 1408.24 1579.79 1417.61 1565.73L1365.18 1530.79ZM1341.7 1558.87L1286.52 1589.27C1333.36 1674.32 1355.06 1771 1349 1868.01L1411.87 1871.94L1474.75 1875.87C1482.31 1754.97 1455.27 1634.47 1396.88 1528.47L1341.7 1558.87ZM1411.87 1871.94L1376.65 1924.17C1381.3 1927.31 1385.53 1931.09 1389.19 1935.43L1437.36 1894.83L1485.53 1854.22C1474.31 1840.91 1461.35 1829.32 1447.1 1819.71L1411.87 1871.94ZM1437.36 1894.83L1389.19 1935.43C1397.54 1945.35 1402.53 1957.67 1403.41 1970.61L1466.26 1966.32L1529.12 1962.04C1526.41 1922.38 1511.14 1884.62 1485.53 1854.22L1437.36 1894.83ZM1466.26 1966.32L1403.41 1970.61C1404.29 1983.54 1401.03 1996.43 1394.09 2007.38L1447.32 2041.08L1500.56 2074.77C1521.82 2041.18 1531.82 2001.7 1529.12 1962.04L1466.26 1966.32ZM1447.32 2041.08L1394.14 2007.3C1398.14 2001 1404.47 1996.53 1411.75 1994.86L1425.81 2056.27L1439.88 2117.68C1464.94 2111.94 1486.73 2096.55 1500.51 2074.85L1447.32 2041.08ZM1425.81 2056.27L1411.75 1994.86C1419.03 1993.2 1426.67 1994.47 1433.02 1998.4L1399.84 2051.95L1366.65 2105.51C1388.51 2119.05 1414.82 2123.42 1439.88 2117.68L1425.81 2056.27ZM1399.84 2051.95L1433.02 1998.4C1439.36 2002.33 1443.9 2008.61 1445.65 2015.87L1384.4 2030.61L1323.15 2045.36C1329.17 2070.35 1344.8 2091.97 1366.65 2105.51L1399.84 2051.95ZM1384.4 2030.61L1445.65 2015.87C1447.4 2023.13 1446.21 2030.79 1442.35 2037.18L1388.43 2004.59L1334.52 1972C1321.22 1994 1317.13 2020.36 1323.15 2045.36L1384.4 2030.61ZM1388.43 2004.59L1442.42 2037.06C1451.83 2021.42 1457.61 2003.88 1459.34 1985.72L1396.62 1979.74L1333.91 1973.75C1333.96 1973.17 1334.15 1972.62 1334.45 1972.12L1388.43 2004.59ZM1396.62 1979.74L1459.34 1985.72C1461.07 1967.56 1458.72 1949.24 1452.44 1932.11L1393.28 1953.78L1334.13 1975.45C1333.93 1974.91 1333.85 1974.33 1333.91 1973.75L1396.62 1979.74ZM1393.28 1953.78L1448.79 1923.99C1435.18 1898.63 1413.23 1878.75 1386.66 1867.71L1362.49 1925.89L1338.33 1984.07C1338.09 1983.98 1337.9 1983.8 1337.77 1983.58L1393.28 1953.78ZM1362.49 1925.89L1386.66 1867.71C1360.08 1856.67 1330.5 1855.15 1302.93 1863.41L1321 1923.76L1339.07 1984.11C1338.82 1984.19 1338.56 1984.17 1338.33 1984.07L1362.49 1925.89ZM1321 1923.76L1296.86 1865.57C1282.37 1871.58 1269.24 1880.44 1258.26 1891.64L1303.22 1935.77L1348.18 1979.9C1347.31 1980.78 1346.28 1981.48 1345.14 1981.95L1321 1923.76ZM1303.22 1935.77L1258.67 1891.22C1264.5 1885.4 1274.06 1885.16 1280.37 1888.41C1283.1 1889.82 1289.53 1894 1293.74 1903.95C1296 1909.27 1297.46 1916.08 1296.81 1923.7C1296.16 1931.44 1293.51 1937.89 1290.41 1942.57L1237.86 1907.82L1185.31 1873.08C1168.68 1898.23 1167.01 1927.83 1177.72 1953.1C1187.41 1975.96 1205.26 1991.44 1222.61 2000.39C1258.13 2018.71 1309.61 2018.47 1347.77 1980.32L1303.22 1935.77ZM1237.86 1907.82L1291.01 1941.65C1297.6 1931.29 1307.26 1923.24 1318.64 1918.61L1294.9 1860.25L1271.17 1801.89C1235.57 1816.37 1205.35 1841.57 1184.71 1874L1237.86 1907.82ZM1294.9 1860.25L1319.1 1918.42C1326.16 1915.48 1333.66 1913.92 1341.22 1913.75L1339.85 1850.77L1338.49 1787.78C1315.34 1788.28 1292.35 1793.08 1270.71 1802.08L1294.9 1860.25ZM1339.85 1850.77L1402.83 1852.67C1403.74 1822.43 1402.21 1792.17 1398.24 1762.16L1335.78 1770.42L1273.32 1778.68C1276.4 1801.94 1277.59 1825.42 1276.88 1848.87L1339.85 1850.77ZM1335.78 1770.42L1398.28 1762.47C1389.54 1693.71 1367.93 1627.26 1334.65 1566.58L1279.41 1596.88L1224.18 1627.17C1249.86 1674.01 1266.54 1725.29 1273.28 1778.36L1335.78 1770.42ZM1279.41 1596.88L1259 1537.28C1247.93 1541.07 1236.34 1542.99 1224.7 1542.99L1224.7 1605.99L1224.7 1668.99C1250.19 1668.99 1275.58 1664.78 1299.83 1656.48L1279.41 1596.88ZM1224.7 1605.99H1161.7V1699.52H1224.7H1287.7V1605.99H1224.7ZM1224.7 1699.52L1161.7 1699.52C1161.7 1780.01 1125.45 1841.78 1065.32 1887.52L1103.46 1937.66L1141.6 1987.8C1228.67 1921.57 1287.7 1824.58 1287.7 1699.52L1224.7 1699.52ZM1103.46 1937.66L1041.45 1926.56C1038.43 1943.42 1033.8 1960 1027.61 1976.06L1086.39 1998.73L1145.16 2021.41C1154.26 1997.83 1161.05 1973.5 1165.48 1948.76L1103.46 1937.66ZM1086.39 1998.73L1027.61 1976.06C1014.75 2009.38 995.404 2039.82 970.685 2065.6L1016.16 2109.2L1061.64 2152.81C1097.91 2114.97 1126.3 2070.31 1145.16 2021.41L1086.39 1998.73ZM1016.16 2109.2L972.421 2063.86C917.311 2117.03 843.444 2146.29 766.878 2145.28L766.053 2208.28L765.228 2271.27C874.995 2272.71 980.893 2230.76 1059.9 2154.55L1016.16 2109.2ZM766.053 2208.28L766.053 2145.28C628.403 2145.28 515.043 2062.9 490.496 1927.86L428.512 1939.13L366.528 1950.39C403.525 2153.94 576.671 2271.28 766.053 2271.28L766.053 2208.28ZM428.512 1939.13L466.329 1888.74C405.198 1842.86 368.331 1780.68 368.331 1699.52L305.331 1699.52L242.331 1699.52C242.331 1825.71 302.431 1923.27 390.695 1989.51L428.512 1939.13ZM305.331 1699.52H368.331V1605.99H305.331H242.331V1699.52H305.331ZM305.331 1605.99L305.332 1542.99C293.651 1542.99 282.018 1541.05 270.916 1537.23L250.424 1596.81L229.932 1656.38C254.262 1664.75 279.746 1668.99 305.331 1668.99L305.331 1605.99ZM250.424 1596.81L195.192 1566.5C161.885 1627.2 140.266 1693.68 131.522 1762.47L194.019 1770.42L256.516 1778.36C263.265 1725.27 279.95 1673.96 305.656 1627.11L250.424 1596.81ZM194.019 1770.42L131.563 1762.16C127.588 1792.21 126.057 1822.52 126.976 1852.8L189.947 1850.89L252.918 1848.97C252.205 1825.49 253.393 1801.98 256.475 1778.68L194.019 1770.42ZM189.947 1850.89L188.956 1913.88C196.6 1914 204.194 1915.55 211.339 1918.49L235.354 1860.25L259.368 1802.01C237.512 1793 214.289 1788.26 190.939 1787.89L189.947 1850.89ZM235.354 1860.25L211.355 1918.5C222.748 1923.19 232.414 1931.29 239.035 1941.68L292.165 1907.82L345.295 1873.97C324.737 1841.71 294.723 1816.57 259.352 1802L235.354 1860.25ZM292.165 1907.82L239.613 1942.57C236.52 1937.89 233.87 1931.44 233.213 1923.7C232.566 1916.07 234.032 1909.27 236.286 1903.95C240.499 1894 246.922 1889.82 249.659 1888.41C255.963 1885.16 265.531 1885.39 271.356 1891.22L226.809 1935.77L182.261 1980.32C220.418 2018.47 271.902 2018.71 307.42 2000.39C324.764 1991.44 342.619 1975.96 352.302 1953.1C363.012 1927.83 361.346 1898.23 344.718 1873.08L292.165 1907.82ZM226.809 1935.77L271.769 1891.64C260.782 1880.44 247.654 1871.58 233.167 1865.57L209.027 1923.76L184.886 1981.95C183.746 1981.48 182.713 1980.78 181.848 1979.9L226.809 1935.77ZM209.027 1923.76L227.095 1863.41C199.525 1855.15 169.95 1856.67 143.372 1867.71L167.536 1925.89L191.701 1984.07C191.465 1984.17 191.203 1984.19 190.958 1984.11L209.027 1923.76ZM167.536 1925.89L143.371 1867.71C116.795 1878.75 94.8438 1898.63 81.2326 1923.99L136.742 1953.78L192.252 1983.57C192.13 1983.8 191.935 1983.98 191.701 1984.07L167.536 1925.89ZM136.742 1953.78L77.6169 1932.03C71.2705 1949.28 68.9221 1967.75 70.7513 1986.04L133.439 1979.77L196.126 1973.5C196.195 1974.19 196.106 1974.89 195.868 1975.53L136.742 1953.78ZM133.439 1979.77L70.7514 1986.04C72.5807 2004.33 78.5403 2021.97 88.1762 2037.62L141.823 2004.59L195.471 1971.56C195.832 1972.15 196.057 1972.81 196.126 1973.5L133.439 1979.77ZM141.823 2004.59L85.5121 2032.84C82.3597 2026.55 81.6742 2019.32 83.5938 2012.55L144.202 2029.74L204.811 2046.94C211.489 2023.39 209.106 1998.21 198.135 1976.34L141.823 2004.59ZM144.202 2029.74L83.5939 2012.55C85.5134 2005.78 89.8971 1999.98 95.8807 1996.29L128.969 2049.9L162.057 2103.51C182.879 2090.66 198.133 2070.48 204.811 2046.94L144.202 2029.74ZM128.969 2049.9L95.881 1996.29C101.867 1992.59 109.017 1991.28 115.923 1992.59L104.121 2054.48L92.3194 2116.36C116.353 2120.95 141.233 2116.36 162.057 2103.51L128.969 2049.9ZM104.121 2054.48L115.924 1992.59C122.826 1993.91 128.991 1997.77 133.199 2003.41L82.7023 2041.08L32.2055 2078.75C46.8393 2098.36 68.2884 2111.78 92.319 2116.36L104.121 2054.48ZM82.7023 2041.08L136.091 2007.63C129.202 1996.63 125.984 1983.73 126.901 1970.79L64.0588 1966.34L1.21628 1961.88C-1.58728 2001.46 8.25025 2040.9 29.3136 2074.52L82.7023 2041.08ZM64.0588 1966.34L126.901 1970.79C127.818 1957.84 132.823 1945.52 141.194 1935.61L93.0539 1894.97L44.9138 1854.33C19.3212 1884.65 4.02005 1922.31 1.2163 1961.88L64.0588 1966.34ZM93.0539 1894.97L141.194 1935.61C144.788 1931.35 148.922 1927.63 153.471 1924.53L117.959 1872.49L82.4477 1820.45C68.5477 1829.94 55.9035 1841.31 44.914 1854.33L93.0539 1894.97ZM117.959 1872.49L180.833 1868.5C174.659 1771.28 196.378 1674.36 243.355 1589.13L188.182 1558.72L133.008 1528.31C74.4593 1634.53 47.392 1755.32 55.0858 1876.48L117.959 1872.49ZM188.182 1558.72L231.901 1513.36C226.434 1508.09 221.526 1502.23 217.278 1495.85L164.854 1530.79L112.429 1565.73C121.743 1579.71 132.498 1592.55 144.463 1604.08L188.182 1558.72ZM164.854 1530.79L217.278 1495.85C205.668 1478.43 199.486 1457.96 199.515 1437.03L136.515 1436.94L73.5149 1436.85C73.4522 1482.72 86.9953 1527.57 112.429 1565.73L164.854 1530.79ZM136.515 1436.94L199.515 1436.94C199.515 1423.06 202.251 1409.32 207.566 1396.5L149.37 1372.37L91.1741 1348.24C79.5164 1376.36 73.5148 1406.5 73.5148 1436.94L136.515 1436.94ZM149.37 1372.37L207.566 1396.5C212.882 1383.68 220.672 1372.03 230.492 1362.23L185.975 1317.65L141.458 1273.07C119.919 1294.58 102.832 1320.12 91.1742 1348.24L149.37 1372.37ZM185.975 1317.65L230.492 1362.23C240.312 1352.42 251.969 1344.65 264.796 1339.35L240.746 1281.12L216.697 1222.89C188.563 1234.51 162.996 1251.56 141.458 1273.07L185.975 1317.65ZM240.746 1281.12L264.796 1339.35C277.623 1334.05 291.368 1331.34 305.246 1331.35L305.332 1268.35L305.419 1205.35C274.979 1205.31 244.831 1211.27 216.697 1222.89L240.746 1281.12ZM305.332 1268.35L305.332 1331.35C309.624 1331.35 313.898 1331.62 318.133 1332.13L325.754 1269.59L333.375 1207.06C324.106 1205.93 314.742 1205.35 305.332 1205.35L305.332 1268.35ZM325.754 1269.59L357.211 1215.01C337.19 1203.47 319.625 1191.11 304.62 1178.07L263.298 1225.63L221.976 1273.18C243.901 1292.23 268.258 1309.17 294.297 1324.18L325.754 1269.59ZM263.298 1225.63L304.193 1177.71C283.091 1159.7 261.861 1123.79 246.514 1069.67C231.57 1016.98 224.125 953.664 225.196 889.215C226.267 824.743 235.815 761.771 252.99 709.611C270.547 656.293 293.886 620.744 317.762 602.639L279.696 552.44L241.629 502.241C189.064 542.101 154.813 604.905 133.311 670.203C111.429 736.659 100.452 812.568 99.2135 887.122C97.9746 961.697 106.436 1037.55 125.295 1104.05C143.752 1169.13 174.223 1232.44 222.403 1273.55L263.298 1225.63ZM279.696 552.44L317.742 602.654C359.883 570.724 416.895 544.145 484.675 524.567L467.193 464.042L449.71 403.516C371.937 425.98 299.596 458.32 241.649 502.226L279.696 552.44ZM467.193 464.042L527.459 482.397C535.725 455.256 546.219 438.243 556.019 429.679L514.565 382.239L473.11 334.799C438.137 365.36 418.45 407.847 406.926 445.687L467.193 464.042ZM514.565 382.239L555.967 429.725C602.825 388.87 682.835 369.104 759.371 368.142L758.579 305.147L757.787 242.152C668.437 243.275 552.746 265.366 473.163 334.753L514.565 382.239ZM758.579 305.147L772.885 243.793L771.348 243.434L757.042 304.789L742.737 366.143L744.274 366.501L758.579 305.147ZM757.042 304.789L816.542 325.496L864.991 186.286L805.491 165.579L745.992 144.871L697.543 284.081L757.042 304.789ZM805.491 165.579L841.304 113.748C842.666 114.689 843.658 116.076 844.109 117.674L783.47 134.76L722.831 151.847C730.339 178.491 746.909 201.677 769.678 217.41L805.491 165.579ZM783.47 134.76L844.109 117.674C844.559 119.272 844.437 120.973 843.767 122.487L786.161 96.9792L728.556 71.4718C717.351 96.7778 715.324 125.203 722.831 151.847L783.47 134.76ZM786.161 96.9792L843.767 122.487C843.096 124.001 841.917 125.235 840.433 125.975L812.326 69.5924L784.219 13.2098C759.447 25.5588 739.762 46.1643 728.556 71.4717L786.161 96.9792Z" fill="rgba(255,255,255,0.7)" mask="url(#path-1-outside-1_3961_356)"/>
<path fill-rule="evenodd" clip-rule="evenodd" d="M1335.78 1776.03C1327.37 1709.88 1305.52 1646.14 1271.58 1588.74C1295.5 1581.71 1316.69 1567.52 1332.32 1548.09C1393.31 1650.7 1420.84 1769.76 1411.07 1888.73C1389.16 1876.38 1364.39 1870.01 1339.25 1870.26C1341.07 1838.81 1339.91 1807.26 1335.78 1776.03" fill="#1E1E1E"/>
<path fill-rule="evenodd" clip-rule="evenodd" d="M1237.86 1913.44C1251.48 1892.05 1271.41 1875.42 1294.9 1865.87C1319.24 1855.74 1346.17 1853.64 1371.79 1859.85C1397.4 1866.07 1420.37 1880.29 1437.36 1900.44C1454.34 1920.6 1464.47 1945.64 1466.26 1971.94C1468.05 1998.24 1461.42 2024.42 1447.32 2046.69C1442.43 2054.39 1434.71 2059.85 1425.81 2061.89C1416.92 2063.93 1407.59 2062.37 1399.84 2057.57C1392.08 2052.77 1386.54 2045.1 1384.4 2036.23C1382.27 2027.36 1383.72 2018.01 1388.43 2010.2C1392.99 2002.64 1395.78 1994.14 1396.62 1985.35C1397.46 1976.56 1396.32 1967.69 1393.28 1959.4C1386.54 1946.83 1375.66 1936.98 1362.49 1931.51C1349.32 1926.04 1334.66 1925.29 1321 1929.38C1314.33 1932.14 1308.28 1936.23 1303.22 1941.38C1270.89 1973.72 1219.39 1941.38 1237.86 1913.44" fill="#1E1E1E"/>
<path fill-rule="evenodd" clip-rule="evenodd" d="M1224.7 1273.97C1191.31 1273.97 1158.66 1283.88 1130.89 1302.44C1103.12 1321 1081.49 1347.38 1068.72 1378.24C1055.94 1409.1 1052.61 1443.05 1059.15 1475.81C1065.68 1508.56 1081.78 1538.64 1105.41 1562.24C1129.05 1585.84 1159.15 1601.9 1191.91 1608.39C1224.67 1614.88 1258.62 1611.5 1289.47 1598.69C1320.31 1585.87 1346.66 1564.2 1365.18 1536.41C1383.7 1508.62 1393.57 1475.95 1393.52 1442.56C1393.52 1420.4 1389.15 1398.46 1380.67 1377.99C1372.18 1357.52 1359.74 1338.92 1344.06 1323.27C1328.38 1307.61 1309.77 1295.2 1289.29 1286.74C1268.81 1278.28 1246.86 1273.94 1224.7 1273.97" fill="#1E1E1E"/>
<path fill-rule="evenodd" clip-rule="evenodd" d="M1224.7 1336.56C1203.68 1336.56 1183.13 1342.79 1165.66 1354.48C1148.18 1366.16 1134.57 1382.76 1126.54 1402.19C1118.5 1421.61 1116.41 1442.98 1120.53 1463.6C1124.65 1484.21 1134.79 1503.14 1149.67 1517.99C1164.55 1532.83 1183.5 1542.93 1204.12 1547.01C1224.74 1551.08 1246.11 1548.94 1265.52 1540.87C1284.92 1532.79 1301.5 1519.14 1313.14 1501.64C1324.79 1484.14 1330.98 1463.58 1330.93 1442.56C1330.87 1414.42 1319.65 1387.46 1299.74 1367.59C1279.82 1347.72 1252.84 1336.56 1224.7 1336.56Z" fill="#74DB3F"/>
<path fill-rule="evenodd" clip-rule="evenodd" d="M194.019 1776.03C202.429 1709.88 224.277 1646.14 258.221 1588.74C234.302 1581.71 213.107 1567.52 197.483 1548.09C136.487 1650.7 108.962 1769.76 118.733 1888.73C140.64 1876.38 165.409 1870.01 190.556 1870.26C188.73 1838.81 189.89 1807.26 194.019 1776.03" fill="#1E1E1E"/>
<path fill-rule="evenodd" clip-rule="evenodd" d="M305.333 1273.97C338.732 1273.97 371.38 1283.88 399.147 1302.44C426.913 1321 448.551 1347.38 461.321 1378.24C474.092 1409.1 477.421 1443.05 470.889 1475.81C464.356 1508.56 448.255 1538.64 424.622 1562.24C400.99 1585.84 370.888 1601.9 338.126 1608.39C305.363 1614.88 271.413 1611.5 240.569 1598.69C209.726 1585.87 183.376 1564.2 164.854 1536.41C146.332 1508.62 136.47 1475.95 136.516 1442.56C136.516 1420.4 140.884 1398.46 149.371 1377.99C157.857 1357.52 170.296 1338.92 185.975 1323.27C201.654 1307.61 220.266 1295.2 240.747 1286.74C261.227 1278.28 283.174 1273.94 305.333 1273.97" fill="#1E1E1E"/>
<path fill-rule="evenodd" clip-rule="evenodd" d="M305.33 1336.56C326.351 1336.56 346.899 1342.79 364.374 1354.48C381.848 1366.16 395.464 1382.76 403.498 1402.19C411.532 1421.61 413.622 1442.98 409.504 1463.6C405.386 1484.21 395.245 1503.14 380.366 1517.99C365.486 1532.83 346.535 1542.93 325.913 1547.01C305.291 1551.08 283.924 1548.94 264.517 1540.87C245.109 1532.79 228.534 1519.14 216.889 1501.64C205.244 1484.14 199.052 1463.58 199.098 1442.56C199.159 1414.42 210.378 1387.46 230.294 1367.59C250.21 1347.72 277.196 1336.56 305.33 1336.56" fill="#74DB3F"/>
<path fill-rule="evenodd" clip-rule="evenodd" d="M292.165 1913.44C278.576 1892.11 258.736 1875.5 235.354 1865.87C211.016 1855.83 184.119 1853.79 158.544 1860.03C132.969 1866.27 110.036 1880.47 93.0545 1900.58C76.0727 1920.7 65.9192 1945.69 64.0588 1971.95C62.1983 1998.21 68.7268 2024.38 82.7028 2046.69C87.9158 2053.68 95.5573 2058.46 104.121 2060.09C112.685 2061.73 121.55 2060.09 128.969 2055.52C136.388 2050.94 141.823 2043.74 144.202 2035.36C146.582 2026.97 145.733 2018 141.824 2010.2C137.186 2002.67 134.319 1994.19 133.439 1985.38C132.559 1976.58 133.689 1967.7 136.743 1959.4C143.488 1946.83 154.365 1936.98 167.537 1931.51C180.708 1926.04 195.364 1925.28 209.027 1929.37C215.7 1932.14 221.748 1936.23 226.809 1941.38C259.141 1973.71 310.64 1941.38 292.165 1913.44Z" fill="#1E1E1E"/>
<path fill-rule="evenodd" clip-rule="evenodd" d="M305.33 1404.68C312.811 1404.73 320.11 1406.99 326.308 1411.18C332.506 1415.37 337.325 1421.3 340.156 1428.22C342.987 1435.15 343.704 1442.75 342.217 1450.09C340.729 1457.42 337.104 1464.14 331.798 1469.42C326.492 1474.69 319.743 1478.28 312.403 1479.72C305.062 1481.16 297.459 1480.4 290.552 1477.52C283.645 1474.65 277.743 1469.8 273.592 1463.57C269.44 1457.35 267.225 1450.04 267.225 1442.56C267.286 1432.49 271.327 1422.86 278.467 1415.76C285.606 1408.66 295.264 1404.68 305.33 1404.68Z" fill="#1E1E1E"/>
<path fill-rule="evenodd" clip-rule="evenodd" d="M1108.54 1438.86V1875.34C1109.77 1919.38 1102.24 1963.24 1086.39 2004.35C1070.53 2045.46 1046.66 2083.01 1016.16 2114.82C949.103 2179.51 859.221 2215.11 766.054 2213.89C581.302 2213.89 422.416 2086.41 422.416 1875.34V1438.86C421.153 1394.81 428.671 1350.95 444.53 1309.83C460.39 1268.72 484.274 1231.17 514.791 1199.38C581.907 1134.63 671.884 1099.02 765.13 1100.3C949.882 1100.3 1108.54 1227.78 1108.54 1438.86Z" fill="#1E1E1E"/>
<path fill-rule="evenodd" clip-rule="evenodd" d="M1046.42 1438.86V1875.34C1046.42 2236.76 483.617 2236.76 483.617 1875.34V1438.86C483.617 1077.21 1046.42 1077.21 1046.42 1438.86Z" fill="#53C806"/>
<path fill-rule="evenodd" clip-rule="evenodd" d="M1224.7 1389.9V1705.13C1224.7 2156.62 305.332 2156.62 305.332 1705.13V1389.9C305.332 938.645 1224.7 938.645 1224.7 1389.9Z" fill="#1E1E1E"/>
<path fill-rule="evenodd" clip-rule="evenodd" d="M1157.27 1389.9V1705.13C1157.27 2066.78 372.072 2066.78 372.072 1705.13V1389.9C372.072 1028.48 1157.27 1028.48 1157.27 1389.9Z" fill="#53C806"/>
<path fill-rule="evenodd" clip-rule="evenodd" d="M797.697 2003.74H730.262V2165.4C730.217 2171.29 730.758 2177.16 731.879 2182.95H799.775C798.374 2177.2 797.676 2171.31 797.697 2165.4V2003.74Z" fill="#1E1E1E"/>
<path fill-rule="evenodd" clip-rule="evenodd" d="M305.334 1360.11C279.227 1360.06 254.02 1369.65 234.544 1387.04C215.069 1404.43 202.695 1428.39 199.794 1454.33C199.558 1450.41 199.558 1446.48 199.794 1442.56C199.856 1414.42 211.075 1387.46 230.991 1367.59C250.907 1347.72 277.892 1336.56 306.027 1336.56H309.491C309.491 1344.41 307.181 1352.03 306.488 1359.65H305.103" fill="#3E9D00"/>
<path fill-rule="evenodd" clip-rule="evenodd" d="M204.641 1432.16C211.816 1453.17 225.38 1471.41 243.434 1484.33C261.488 1497.25 283.13 1504.2 305.331 1504.22V1548.79C279.188 1548.83 253.951 1539.21 234.47 1521.77C214.99 1504.34 202.639 1480.32 199.791 1454.33C200.635 1446.49 202.26 1438.76 204.641 1431.24" fill="#3E9D00"/>
<path fill-rule="evenodd" clip-rule="evenodd" d="M305.33 1394.75V1404.68C296.098 1404.61 287.161 1407.94 280.221 1414.03C273.28 1420.11 268.82 1428.54 267.687 1437.7C267.573 1436.09 267.573 1434.47 267.687 1432.86C267.687 1427.85 268.673 1422.9 270.588 1418.27C272.503 1413.65 275.309 1409.45 278.848 1405.91C282.386 1402.37 286.587 1399.57 291.21 1397.65C295.833 1395.74 300.788 1394.75 305.792 1394.75" fill="#3E9D00"/>
<path fill-rule="evenodd" clip-rule="evenodd" d="M267.455 1446.48C268.479 1455.81 272.911 1464.43 279.9 1470.7C286.889 1476.96 295.944 1480.43 305.33 1480.43V1488.51C295.264 1488.51 285.606 1484.53 278.467 1477.43C271.327 1470.34 267.286 1460.7 267.225 1450.64C267.225 1449.25 267.225 1447.87 267.225 1446.48" fill="#3E9D00"/>
<path fill-rule="evenodd" clip-rule="evenodd" d="M1157.27 1583.43V1705.13C1157.27 2066.78 372.072 2066.78 372.072 1705.13V1583.43C372.072 1944.85 1157.27 1944.85 1157.27 1583.43Z" fill="#3E9D00"/>
<path fill-rule="evenodd" clip-rule="evenodd" d="M577.844 1426.55H952.36C985.469 1426.55 1017.22 1437.72 1040.63 1457.61C1064.05 1477.5 1077.2 1504.47 1077.2 1532.59C1077.2 1560.72 1064.05 1587.69 1040.63 1607.58C1017.22 1627.46 985.469 1638.64 952.36 1638.64H577.844C544.735 1638.64 512.982 1627.46 489.57 1607.58C466.158 1587.69 453.006 1560.72 453.006 1532.59C453.006 1504.47 466.158 1477.5 489.57 1457.61C512.982 1437.72 544.735 1426.55 577.844 1426.55" fill="#3E9D00"/>
<path fill-rule="evenodd" clip-rule="evenodd" d="M577.844 1476.55H952.36C985.469 1476.55 1017.22 1487.73 1040.63 1507.61C1064.05 1527.5 1077.2 1554.47 1077.2 1582.6C1077.2 1610.72 1064.05 1637.69 1040.63 1657.58C1017.22 1677.47 985.469 1688.64 952.36 1688.64H577.844C544.735 1688.64 512.982 1677.47 489.57 1657.58C466.158 1637.69 453.006 1610.72 453.006 1582.6C453.006 1554.47 466.158 1527.5 489.57 1507.61C512.982 1487.73 544.735 1476.55 577.844 1476.55" fill="#74DB3F"/>
<path fill-rule="evenodd" clip-rule="evenodd" d="M577.844 1454.14H952.36C985.469 1454.14 1017.22 1465.31 1040.63 1485.2C1064.05 1505.08 1077.2 1532.06 1077.2 1560.18C1077.2 1588.31 1064.05 1615.28 1040.63 1635.17C1017.22 1655.05 985.469 1666.23 952.36 1666.23H577.844C544.735 1666.23 512.982 1655.05 489.57 1635.17C466.158 1615.28 453.006 1588.31 453.006 1560.18C453.006 1532.06 466.158 1505.08 489.57 1485.2C512.982 1465.31 544.735 1454.14 577.844 1454.14Z" fill="#1E1E1E"/>
<path fill-rule="evenodd" clip-rule="evenodd" d="M1224.7 1404.68C1217.22 1404.73 1209.92 1406.99 1203.72 1411.18C1197.52 1415.37 1192.7 1421.3 1189.87 1428.22C1187.04 1435.15 1186.33 1442.75 1187.81 1450.09C1189.3 1457.42 1192.93 1464.14 1198.23 1469.42C1203.54 1474.69 1210.29 1478.28 1217.63 1479.72C1224.97 1481.16 1232.57 1480.4 1239.48 1477.52C1246.38 1474.65 1252.29 1469.8 1256.44 1463.57C1260.59 1457.35 1262.8 1450.04 1262.8 1442.56C1262.74 1432.49 1258.7 1422.86 1251.56 1415.76C1244.42 1408.66 1234.77 1404.68 1224.7 1404.68" fill="#1E1E1E"/>
<path fill-rule="evenodd" clip-rule="evenodd" d="M1224.7 1360.11C1250.81 1360.06 1276.01 1369.65 1295.49 1387.04C1314.96 1404.43 1327.34 1428.39 1330.24 1454.33C1330.48 1450.41 1330.48 1446.48 1330.24 1442.56C1330.18 1414.42 1318.96 1387.46 1299.04 1367.59C1279.13 1347.72 1252.14 1336.56 1224.01 1336.56H1219.62C1221 1344.41 1221.93 1352.03 1222.62 1359.65H1224.01" fill="#3E9D00"/>
<path fill-rule="evenodd" clip-rule="evenodd" d="M1325.62 1432.16C1318.44 1453.17 1304.88 1471.41 1286.83 1484.33C1268.77 1497.25 1247.13 1504.2 1224.93 1504.22V1548.79C1251.07 1548.83 1276.31 1539.21 1295.79 1521.77C1315.27 1504.34 1327.62 1480.32 1330.47 1454.33C1329.63 1446.49 1328 1438.76 1325.62 1431.24" fill="#3E9D00"/>
<path fill-rule="evenodd" clip-rule="evenodd" d="M1224.7 1394.75V1404.68C1233.94 1404.61 1242.87 1407.94 1249.81 1414.03C1256.75 1420.11 1261.21 1428.54 1262.35 1437.7C1262.46 1436.09 1262.46 1434.47 1262.35 1432.86C1262.35 1427.85 1261.36 1422.9 1259.45 1418.27C1257.53 1413.65 1254.73 1409.45 1251.19 1405.91C1247.65 1402.37 1243.45 1399.57 1238.82 1397.65C1234.2 1395.74 1229.25 1394.75 1224.24 1394.75" fill="#3E9D00"/>
<path fill-rule="evenodd" clip-rule="evenodd" d="M1262.57 1446.48C1261.55 1455.81 1257.12 1464.43 1250.13 1470.7C1243.14 1476.96 1234.08 1480.43 1224.7 1480.43V1488.51C1234.77 1488.51 1244.42 1484.53 1251.56 1477.43C1258.7 1470.34 1262.74 1460.7 1262.8 1450.64C1262.8 1449.25 1262.8 1447.87 1262.8 1446.48" fill="#3E9D00"/>
<path fill-rule="evenodd" clip-rule="evenodd" d="M765.134 872.828C677.377 872.828 569.76 849.734 505.558 787.149C459.37 742.116 449.44 648.586 450.364 586.232C451.288 523.878 465.144 431.041 514.565 387.855C579.459 331.275 680.841 310.721 765.134 310.721C849.427 310.721 949.886 331.275 1015.47 387.855C1064.89 431.041 1078.52 523.185 1079.67 586.232C1080.83 649.278 1070.21 742.116 1024.71 787.149C960.278 850.427 852.66 872.828 765.134 872.828Z" fill="#1E1E1E"/>
<path fill-rule="evenodd" clip-rule="evenodd" d="M765.131 809.089C831.641 809.089 926.788 793.385 980.135 741.886C1009.7 712.556 1016.85 628.956 1016.16 587.156C1015.47 545.356 1005.77 463.603 973.669 435.66C920.091 389.472 830.486 374.229 765.823 374.229C701.16 374.229 610.632 389.01 557.978 435.66C525.877 463.603 516.409 544.432 515.485 587.156C514.561 629.88 521.951 712.556 551.743 741.886C603.935 793.385 700.006 809.089 766.747 809.089" fill="#53C806"/>
<path fill-rule="evenodd" clip-rule="evenodd" d="M765.131 1372.35C569.063 1372.35 372.534 1326.16 263.299 1231.24C124.736 1113 126.814 673.987 279.696 558.055C392.164 472.839 578.532 430.346 764.669 430.346C950.807 430.346 1137.41 472.839 1249.64 558.055C1402.52 673.525 1404.37 1112.31 1266.04 1231.24C1156.11 1325.47 960.275 1372.35 764.438 1372.35" fill="#1E1E1E"/>
<path fill-rule="evenodd" clip-rule="evenodd" d="M765.132 1302.84C906.236 1302.84 1111.54 1273.51 1221.47 1178.36C1284.75 1124.32 1299.53 970.514 1298.14 892.919C1296.75 815.323 1276.2 665.212 1208.07 613.482C1094.45 527.341 903.926 499.859 765.132 499.859C626.337 499.859 435.581 527.341 321.958 613.482C253.831 665.212 233.509 814.168 232.123 892.919C230.737 971.669 245.287 1123.86 308.564 1178.36C419.646 1273.51 623.797 1302.84 765.132 1302.84Z" fill="#74DB3F"/>
<path fill-rule="evenodd" clip-rule="evenodd" d="M543.658 451.133C689.928 423.42 840.1 423.42 986.369 451.133C982.958 445.351 978.674 440.132 973.668 435.66L962.583 426.653C831.855 404.793 698.404 404.793 567.676 426.653C563.75 429.655 559.824 432.658 556.36 435.66C551.354 440.132 547.069 445.351 543.658 451.133" fill="#3E9D00"/>
<path fill-rule="evenodd" clip-rule="evenodd" d="M584.073 424.113L567.676 426.653L584.073 424.113ZM945.955 424.113L962.583 426.653L945.955 424.113ZM545.968 448.592C557.678 438.983 570.465 430.768 584.073 424.113C641.243 399.582 702.804 386.933 765.015 386.933C827.225 386.933 888.786 399.582 945.955 424.113C959.563 430.768 972.351 438.983 984.061 448.592L985.677 449.978C982.363 444.667 978.321 439.848 973.668 435.66L962.583 426.653C908.312 387.162 826.098 374.229 765.13 374.229C704.162 374.229 621.716 387.162 567.676 426.653C563.75 429.655 559.825 432.657 556.361 435.66C551.708 439.848 547.666 444.667 544.352 449.978L545.968 448.592Z" fill="#74DB3F"/>
<path fill-rule="evenodd" clip-rule="evenodd" d="M450.589 584.383C471.373 577.224 493.081 570.757 515.021 565.446C679.46 526.958 850.566 526.958 1015 565.446C1036.94 570.757 1058.65 577.224 1079.44 584.383C1125.52 599.398 1168.93 621.613 1208.07 650.201C1274.12 700.084 1295.13 841.881 1297.91 922.248C1297.91 911.624 1297.91 901.694 1297.91 892.687C1296.29 813.937 1275.97 664.981 1207.84 613.25C1168.04 584.34 1123.93 561.894 1077.13 546.74C1055.65 539.349 1033.25 533.114 1010.62 527.571C848.844 490.313 680.719 490.313 518.947 527.571C495.853 533.114 472.759 539.349 452.436 546.74C405.637 561.894 361.524 584.34 321.724 613.25C253.597 664.981 233.274 813.937 231.889 892.687C231.889 901.694 231.889 911.624 231.889 922.248C234.66 841.881 254.983 700.084 321.724 650.201C360.861 621.613 404.276 599.398 450.358 584.383" fill="#3E9D00"/>
<path fill-rule="evenodd" clip-rule="evenodd" d="M844.342 1201.45C816.399 1203.53 789.84 1204.46 765.13 1204.46C740.419 1204.46 713.63 1204.46 685.686 1201.45C643.761 1198.63 602.041 1193.31 560.748 1185.52L548.277 1182.98C515.845 1176.37 483.84 1167.81 452.438 1157.34C400.012 1140.9 351.187 1114.65 308.562 1079.98C262.374 1041.41 242.975 951.346 235.354 875.136C233.738 892.225 232.583 908.391 232.121 921.324C234.661 1003.31 252.675 1129.17 308.562 1177.2C329.129 1194.55 351.597 1209.5 375.535 1221.78C396.821 1232.82 418.807 1242.47 441.353 1250.64C454.285 1255.26 467.218 1259.42 480.612 1263.35C503.706 1269.81 526.8 1275.59 549.894 1280.2C692.5 1308.84 839.376 1308.84 981.982 1280.2C1005.08 1275.59 1028.17 1270.04 1051.26 1263.35C1064.43 1259.42 1077.59 1255.26 1090.52 1250.64C1113.07 1242.47 1135.06 1232.82 1156.34 1221.78C1180.28 1209.5 1202.75 1194.55 1223.31 1177.2C1279.2 1129.4 1297.21 1003.31 1299.76 921.324C1299.76 907.236 1298.14 891.071 1296.52 875.136C1288.9 951.346 1268.58 1041.41 1223.31 1079.98C1180.69 1114.65 1131.86 1140.9 1079.44 1157.34C1048.04 1167.81 1016.03 1176.37 983.599 1182.98L971.128 1185.52C929.835 1193.31 888.116 1198.63 846.19 1201.45" fill="#3E9D00"/>
<path fill-rule="evenodd" clip-rule="evenodd" d="M765.133 1112.31C621.72 1112.31 478.306 1089.22 397.939 1040.49C296.788 980.445 297.943 756.895 409.948 698.006C492.163 654.589 628.648 632.881 765.133 632.881C901.618 632.881 1037.87 654.589 1120.09 698.006C1232.09 756.895 1233.25 980.445 1132.1 1040.49C1051.73 1088.52 908.316 1112.31 765.133 1112.31" fill="#3E9D00"/>
<path fill-rule="evenodd" clip-rule="evenodd" d="M765.133 1164.27C621.72 1164.27 478.306 1141.18 397.939 1092.45C296.788 1032.18 297.943 808.857 409.948 749.737C492.163 706.32 628.648 684.843 765.133 684.843C901.618 684.843 1037.87 706.32 1120.09 749.737C1232.09 808.857 1233.25 1032.18 1132.1 1092.45C1051.73 1140.26 908.316 1164.27 765.133 1164.27" fill="#3E9D00"/>
<path fill-rule="evenodd" clip-rule="evenodd" d="M765.133 1140.95C621.72 1140.95 478.306 1117.85 397.939 1069.36C296.788 1009.08 297.943 785.531 409.948 726.642C492.163 683.225 628.648 661.517 765.133 661.517C901.618 661.517 1037.87 683.225 1120.09 726.642C1232.09 785.531 1233.25 1009.08 1132.1 1069.36C1051.73 1117.16 908.316 1140.95 765.133 1140.95Z" fill="#1E1E1E"/>
<path d="M863.494 880.272H902.506C913.293 880.272 922.012 889.011 922.012 899.778C922.012 910.546 913.293 919.284 902.506 919.284H863.494C852.707 919.284 843.988 910.546 843.988 899.778C843.988 889.011 852.707 880.272 863.494 880.272Z" fill="#DCF8FF" fill-opacity="0.4"/>
<path d="M876.289 817.015L848.708 844.616C841.101 852.224 828.753 852.224 821.126 844.616C813.5 836.99 813.5 824.642 821.126 817.015L848.708 789.434C856.335 781.807 868.682 781.807 876.289 789.434C883.916 797.041 883.916 809.408 876.289 817.015Z" fill="#DCF8FF" fill-opacity="0.6"/>
<path d="M746.459 763.236C746.459 752.469 755.198 743.73 765.965 743.73C776.732 743.73 785.471 752.469 785.471 763.236V802.248C785.471 813.016 776.732 821.754 765.965 821.754C755.198 821.754 746.459 813.016 746.459 802.248V763.236Z" fill="#DCF8FF"/>
<path fill-rule="evenodd" clip-rule="evenodd" d="M487.08 1392.67C546.15 1407.79 606.42 1417.76 667.213 1422.46L759.589 1432.86L863.28 1422.46C924.073 1417.76 984.343 1407.79 1043.41 1392.67L1066.51 1386.21C1079.21 1382.51 1091.68 1378.59 1103.92 1374.2C1121.7 1368.19 1138.79 1361.27 1155.42 1354.11C1152.82 1337.56 1148.32 1321.36 1142.02 1305.84C1132.56 1309.77 1122.86 1313.69 1112.93 1317.16C1103 1320.62 1098.84 1322.24 1091.45 1324.55C1072.05 1331.01 1051.96 1336.79 1031.17 1341.87C856.492 1382.86 674.694 1382.86 500.012 1341.87C479.228 1336.79 459.136 1331.01 439.506 1324.55L418.26 1317.16C408.33 1313.69 398.63 1309.77 389.161 1305.84C382.846 1321.34 378.427 1337.55 375.998 1354.11C392.395 1361.27 409.484 1368.19 427.267 1374.2C439.506 1378.59 451.977 1382.51 464.679 1386.21L487.773 1392.67" fill="#74DB3F"/>
<path d="M765.964 977.803C755.197 977.803 746.458 986.523 746.458 997.309V1036.32C746.458 1047.11 755.197 1055.83 765.964 1055.83C776.731 1055.83 785.47 1047.11 785.47 1036.32V997.309C785.47 986.523 776.731 977.803 765.964 977.803ZM683.2 954.942L655.619 982.524C647.992 990.151 647.992 1002.5 655.619 1010.11C663.226 1017.73 675.573 1017.73 683.2 1010.11L710.782 982.524C718.408 974.897 718.408 962.569 710.782 954.942C703.174 947.335 690.827 947.335 683.2 954.942ZM683.2 789.434C675.573 781.807 663.226 781.807 655.619 789.434C647.992 797.041 647.992 809.408 655.619 817.015L683.2 844.616C690.827 852.224 703.174 852.224 710.782 844.616C718.408 836.99 718.408 824.642 710.782 817.015L683.2 789.434ZM848.709 954.942C841.082 947.316 828.754 947.316 821.127 954.942C813.5 962.569 813.5 974.897 821.127 982.524L848.709 1010.11C856.335 1017.73 868.683 1017.73 876.29 1010.11C883.917 1002.5 883.917 990.151 876.29 982.524L848.709 954.942ZM687.94 899.779C687.94 889.012 679.201 880.273 668.434 880.273H629.422C618.655 880.273 609.916 889.012 609.916 899.779C609.916 910.547 618.655 919.285 629.422 919.285H668.434C679.201 919.285 687.94 910.547 687.94 899.779Z" fill="#DCF8FF"/>
<path d="M629.428 1560.28L634.153 1565L629.578 1569.58H627.478H624.778H620.353L617.653 1564.93L620.353 1560.28H624.778H627.553H629.428ZM635.278 1566.05L635.578 1565.75H639.928V1596.73L637.603 1599.05L630.628 1592.08V1591.63V1579.78V1572.73V1570.63L635.278 1566.05ZM637.603 1530.8L639.928 1533.13V1564.18H635.578L635.278 1563.88L630.628 1559.3V1558.48V1550.08V1538.23V1537.78L637.603 1530.8ZM612.103 1547.6V1538.23H621.403V1547.6V1555.33L616.753 1563.35L612.103 1555.33V1547.6ZM636.553 1600.1L634.228 1602.43H621.403H612.103H599.278L596.953 1600.1L603.928 1593.13H605.803H612.103H621.403H627.703H629.578L636.553 1600.1ZM596.953 1529.75L599.278 1527.43H612.103H621.403H634.228L636.553 1529.75L629.578 1536.73H627.703H621.403H612.103H605.803H604.378H603.928L596.953 1529.75ZM621.403 1582.25V1591.63H612.103V1582.25V1574.53L616.753 1566.5L621.403 1574.53V1582.25ZM659.458 1563.8L659.158 1564.18H654.808V1533.13L657.133 1530.8L664.108 1537.78V1550.08V1558.18V1559.23L659.458 1563.8ZM664.108 1591.63V1592.08L657.133 1599.05L654.808 1596.73V1565.68H659.158L659.458 1566.05L664.108 1570.63V1573.63V1579.78V1591.63ZM696.508 1566.05L696.808 1565.75H701.158V1596.73L698.833 1599.05L691.858 1592.08V1591.63V1579.78V1572.73V1570.63L696.508 1566.05ZM698.833 1530.8L701.158 1533.13V1564.18H696.808L696.508 1563.88L691.858 1559.3V1558.48V1550.08V1538.23V1537.78L698.833 1530.8ZM697.783 1600.1L695.458 1602.43H682.633H673.333H660.508L658.183 1600.1L665.158 1593.13H667.033H673.333H682.633H688.933H690.808L697.783 1600.1ZM720.689 1563.8L720.389 1564.18H716.039V1533.13L718.364 1530.8L725.339 1537.78V1550.08V1558.18V1559.23L720.689 1563.8ZM751.889 1560.28L756.614 1565L752.039 1569.58H749.939H747.239H742.814L740.114 1564.93L742.814 1560.28H747.239H750.014H751.889ZM725.339 1591.63V1592.08L718.364 1599.05L716.039 1596.73V1565.68H720.389L720.689 1566.05L725.339 1570.63V1573.63V1579.78V1591.63ZM719.414 1529.75L721.739 1527.43H734.564H743.864H756.689L759.014 1529.75L752.039 1536.73H750.164H743.864H734.564H728.264H726.839H726.389L719.414 1529.75ZM735.614 1560.28L738.314 1564.93L735.614 1569.58H731.189H728.414H726.389L721.739 1564.93L726.389 1560.28H728.414H731.189H735.614ZM781.919 1563.8L781.619 1564.18H777.269V1533.13L779.594 1530.8L786.569 1537.78V1550.08V1558.18V1559.23L781.919 1563.8ZM813.119 1560.28L817.844 1565L813.269 1569.58H811.169H808.469H804.044L801.344 1564.93L804.044 1560.28H808.469H811.244H813.119ZM786.569 1591.63V1592.08L779.594 1599.05L777.269 1596.73V1565.68H781.619L781.919 1566.05L786.569 1570.63V1573.63V1579.78V1591.63ZM780.644 1529.75L782.969 1527.43H795.794H805.094H817.919L820.244 1529.75L813.269 1536.73H811.394H805.094H795.794H789.494H788.069H787.619L780.644 1529.75ZM796.844 1560.28L799.544 1564.93L796.844 1569.58H792.419H789.644H787.619L782.969 1564.93L787.619 1560.28H789.644H792.419H796.844ZM843.15 1563.8L842.85 1564.18H838.5V1533.13L840.825 1530.8L847.8 1537.78V1550.08V1558.18V1559.23L843.15 1563.8ZM874.35 1560.28L879.075 1565L874.5 1569.58H872.4H869.7H865.275L862.575 1564.93L865.275 1560.28H869.7H872.475H874.35ZM847.8 1591.63V1592.08L840.825 1599.05L838.5 1596.73V1565.68H842.85L843.15 1566.05L847.8 1570.63V1573.63V1579.78V1591.63ZM881.475 1600.1L879.15 1602.43H866.325H857.025H844.2L841.875 1600.1L848.85 1593.13H850.725H857.025H866.325H872.625H874.5L881.475 1600.1ZM841.875 1529.75L844.2 1527.43H857.025H866.325H879.15L881.475 1529.75L874.5 1536.73H872.625H866.325H857.025H850.725H849.3H848.85L841.875 1529.75ZM858.075 1560.28L860.775 1564.93L858.075 1569.58H853.65H850.875H848.85L844.2 1564.93L848.85 1560.28H850.875H853.65H858.075ZM904.38 1563.8L904.08 1564.18H899.73V1533.13L902.055 1530.8L909.03 1537.78V1550.08V1558.18V1559.23L904.38 1563.8ZM935.58 1560.28L940.305 1565L935.73 1569.58H933.63H930.93H926.505L923.805 1564.93L926.505 1560.28H930.93H933.705H935.58ZM909.03 1591.63V1592.08L902.055 1599.05L899.73 1596.73V1565.68H904.08L904.38 1566.05L909.03 1570.63V1573.63V1579.78V1591.63ZM943.755 1530.8L946.08 1533.13V1564.18H941.73L941.43 1563.88L936.78 1559.3V1558.48V1550.08V1538.23V1537.78L943.755 1530.8ZM935.28 1577.08V1591.63H932.955L929.055 1584.88V1571.08H931.83L935.28 1577.08ZM903.105 1529.75L905.43 1527.43H918.255H927.555H940.38L942.705 1529.75L935.73 1536.73H933.855H927.555H918.255H911.955H910.53H910.08L903.105 1529.75ZM919.305 1560.28L922.005 1564.93L919.305 1569.58H914.88H912.105H910.08L905.43 1564.93L910.08 1560.28H912.105H914.88H919.305Z" fill="#DCF8FF"/>
<path fill-rule="evenodd" clip-rule="evenodd" d="M845.415 180.503L827.3 326.785L757.042 310.405L805.491 171.194C794.786 163.798 786.998 152.899 783.47 140.376C779.941 127.853 780.893 114.491 786.16 102.595C791.428 90.698 800.682 81.0126 812.326 75.208C823.97 69.4035 837.275 67.8439 849.946 70.7981C862.617 73.7524 873.859 81.0353 881.735 91.3911C889.612 101.747 893.628 114.526 893.091 127.526C892.554 140.525 887.498 152.93 878.795 162.601C870.091 172.273 858.286 178.603 845.415 180.503" fill="#1E1E1E"/>
</svg>
