<svg width="372" height="269" viewBox="0 0 372 269" fill="none" xmlns="http://www.w3.org/2000/svg">
<path d="M354.1 123.613L326.5 243.613L323.7 255.813L320.9 268.013H185.3H49.7L46.9 255.913L44.1 243.713L16.5 123.613C16.5 123.613 64.6 159.313 78.9 150.013C93.1 140.713 82.4 80.9132 82.4 80.9132C82.4 80.9132 113.3 132.013 129.9 129.613C158.4 125.413 185.4 26.0132 185.4 26.0132C185.4 26.0132 212.4 125.513 240.9 129.713C257.5 132.113 288.4 81.0132 288.4 81.0132C288.4 81.0132 277.6 140.913 291.9 150.113C306.2 159.413 354.3 123.713 354.3 123.713L354.1 123.613Z" fill="#FBB82E"/>
<path d="M23.8 145.613C40.6 155.613 63.8 163.713 72.8 163.713C81.8 163.713 79.8 162.813 82.4 161.113C90.6 155.813 93.8 141.913 92.4 117.313C92.4 115.613 92.2001 113.913 92.1001 112.213C92.8001 113.113 93.5 114.013 94.2 114.913C99.9 122.313 105.3 128.213 110.1 132.513C117.1 138.713 123.2 141.713 128.7 141.713C134.2 141.713 130.1 141.713 130.8 141.513C139.3 140.313 147.5 133.513 155.9 120.713C161.9 111.613 168.1 99.3132 174.2 84.2132C178.6 73.3132 182.4 62.5132 185.3 53.7132C188.2 62.5132 192 73.3132 196.4 84.3132C202.5 99.4132 208.7 111.713 214.7 120.813C223.1 133.513 231.3 140.313 239.8 141.613C240.5 141.713 241.2 141.813 241.9 141.813C247.4 141.813 253.5 138.813 260.5 132.613C265.3 128.313 270.7 122.413 276.4 115.013C277.1 114.113 277.8 113.213 278.5 112.313C278.4 114.013 278.3 115.713 278.2 117.413C276.8 141.913 280 155.913 288.2 161.213C290.8 162.913 294.1 163.813 297.8 163.813C306.8 163.813 319.3 158.913 336.2 148.913C338 147.813 344.9 143.613 350.3 140.213L354.1 123.613C354.1 123.613 306 159.313 291.7 150.013C277.5 140.713 288.2 80.9132 288.2 80.9132C288.2 80.9132 257.3 132.013 240.7 129.613C212.2 125.413 185.2 26.0132 185.2 26.0132C185.2 26.0132 158.2 125.313 129.7 129.513C113.1 131.913 82.2 80.8132 82.2 80.8132C82.2 80.8132 93 140.713 78.7 149.913C64.4 159.213 16.3 123.513 16.3 123.513L21 144.013C21.8 144.513 22.7 145.013 23.6 145.513L23.8 145.613Z" fill="#FA6731"/>
<path d="M326.6 243.613L323.8 255.813H46.9001L44.1001 243.613H326.6Z" fill="#FA6731"/>
<path d="M202.433 25.8298C204.628 16.474 198.822 7.11062 189.466 4.91623C180.111 2.72183 170.747 8.52735 168.553 17.8832C166.359 27.2391 172.164 36.6024 181.52 38.7968C190.876 40.9912 200.239 35.1857 202.433 25.8298Z" fill="#FA6731"/>
<path d="M195.321 24.1085C196.62 18.5703 193.183 13.0276 187.645 11.7287C182.107 10.4297 176.564 13.8663 175.265 19.4045C173.966 24.9427 177.403 30.4854 182.941 31.7844C188.479 33.0834 194.022 29.6468 195.321 24.1085Z" fill="#FBB82E"/>
<path d="M97.6613 80.6614C99.2516 72.0815 93.5852 63.8369 85.0052 62.2467C76.4253 60.6565 68.1807 66.3228 66.5905 74.9028C65.0003 83.4828 70.6666 91.7273 79.2466 93.3176C87.8266 94.9078 96.0711 89.2414 97.6613 80.6614Z" fill="#FA6731"/>
<path d="M91.3703 79.5768C92.3063 74.5266 88.971 69.6738 83.9208 68.7378C78.8706 67.8018 74.0178 71.137 73.0818 76.1873C72.1457 81.2375 75.481 86.0903 80.5312 87.0263C85.5815 87.9623 90.4343 84.6271 91.3703 79.5768Z" fill="#FBB82E"/>
<path d="M30.1522 124.714C31.3838 117.193 26.285 110.097 18.7637 108.865C11.2423 107.634 4.14662 112.733 2.91495 120.254C1.68328 127.775 6.78208 134.871 14.3034 136.103C21.8248 137.334 28.9205 132.236 30.1522 124.714Z" fill="#FA6731"/>
<path d="M19.7862 129.89C23.9732 128.164 25.9684 123.371 24.2427 119.184C22.5169 114.997 17.7236 113.001 13.5366 114.727C9.34957 116.453 7.35434 121.246 9.0801 125.433C10.8059 129.62 15.5991 131.615 19.7862 129.89Z" fill="#FBB82E"/>
<path d="M292.457 93.0688C300.946 91.0466 306.188 82.5259 304.165 74.0373C302.143 65.5488 293.622 60.3069 285.134 62.3291C276.645 64.3514 271.403 72.872 273.426 81.3606C275.448 89.8491 283.968 95.0911 292.457 93.0688Z" fill="#FA6731"/>
<path d="M291.051 86.4457C296.047 85.2554 299.133 80.24 297.942 75.2436C296.752 70.2472 291.737 67.1618 286.74 68.3521C281.744 69.5424 278.658 74.5577 279.849 79.5541C281.039 84.5505 286.054 87.636 291.051 86.4457Z" fill="#FBB82E"/>
<path d="M358.345 135.348C365.656 133.196 369.839 125.524 367.687 118.213C365.535 110.902 357.864 106.719 350.552 108.871C343.241 111.023 339.058 118.694 341.21 126.006C343.362 133.317 351.033 137.5 358.345 135.348Z" fill="#FA6731"/>
<path d="M362.127 124.815C363.481 120.493 361.076 115.892 356.754 114.538C352.433 113.184 347.832 115.589 346.478 119.911C345.123 124.232 347.529 128.833 351.85 130.187C356.172 131.542 360.773 129.136 362.127 124.815Z" fill="#FBB82E"/>
</svg> 