<svg width="729" height="488" viewBox="0 0 729 488" fill="none" xmlns="http://www.w3.org/2000/svg">
<g filter="url(#filter0_d_3961_456)">
<path d="M165.974 240.661C176.711 246.288 189.976 242.144 195.604 231.405L229.35 166.997C263.635 247.933 348.008 300.718 439.767 290.914C507.307 283.696 566.754 243.57 598.783 183.576C604.492 172.881 600.451 159.583 589.757 153.874C579.062 148.166 565.765 152.206 560.058 162.901C534.884 210.055 488.174 241.589 435.105 247.261C362.611 255.006 295.983 213.031 269.34 148.838L340.529 186.136C351.265 191.761 364.532 187.618 370.158 176.878C375.784 166.14 371.64 152.875 360.902 147.249L246.36 87.237C240.991 84.4239 234.99 84.0542 229.629 85.7289C224.269 87.4036 219.544 91.124 216.731 96.4932L156.72 211.03C151.092 221.769 155.236 235.035 165.974 240.661Z" fill="#FF2E00"/>
<path d="M613.405 191.381C579.065 255.706 515.538 298.915 443.238 307.206L441.528 307.396L439.204 307.632C352.475 315.987 272.216 272.736 229.26 202.885L210.286 239.098L210.285 239.099C200.41 257.943 177.129 265.22 158.282 255.344L157.407 254.871C139.212 244.743 132.316 221.892 142.039 203.338L142.038 203.337L202.049 88.8009C206.985 79.3795 215.304 72.839 224.687 69.9078C234.072 66.9762 244.633 67.6195 254.053 72.555L368.594 132.566C387.441 142.441 394.715 165.724 384.84 184.571C374.966 203.42 351.68 210.691 332.836 200.818L322.653 195.483C351.984 221.3 391.599 235.239 433.344 230.779C480.944 225.691 522.844 197.413 545.436 155.095C555.456 136.322 578.795 129.234 597.563 139.251L597.564 139.252C616.334 149.273 623.424 172.612 613.406 191.381L613.405 191.381Z" stroke="white" stroke-width="33.1507"/>
</g>
<defs>
<filter id="filter0_d_3961_456" x="0.809918" y="0.222195" width="727.403" height="487.581" filterUnits="userSpaceOnUse" color-interpolation-filters="sRGB">
<feFlood flood-opacity="0" result="BackgroundImageFix"/>
<feColorMatrix in="SourceAlpha" type="matrix" values="0 0 0 0 0 0 0 0 0 0 0 0 0 0 0 0 0 0 127 0" result="hardAlpha"/>
<feOffset dx="-13.2787" dy="55.6062"/>
<feGaussianBlur stdDeviation="53.4801"/>
<feComposite in2="hardAlpha" operator="out"/>
<feColorMatrix type="matrix" values="0 0 0 0 0 0 0 0 0 0 0 0 0 0 0 0 0 0 0.4 0"/>
<feBlend mode="normal" in2="BackgroundImageFix" result="effect1_dropShadow_3961_456"/>
<feBlend mode="normal" in="SourceGraphic" in2="effect1_dropShadow_3961_456" result="shape"/>
</filter>
</defs>
</svg>
