<svg xmlns="http://www.w3.org/2000/svg" width="245.747" height="254.19" viewBox="0 0 245.747 254.19">
  <g>
    <g>
      <circle cx="122.873" cy="122.873" r="122.873" fill="#c48400"/>
      <circle cx="122.873" cy="122.873" r="113.424" fill="#ffac00"/>
      <circle cx="122.873" cy="122.873" r="102.477" fill="#ffde00"/>
    </g>
    <path d="M71.248,163.528c6.874-.55,12.665-1.321,19.174-2.34,14.376-2.317,27.13-4.724,40.427-9.094,11.968-3.809,26.9-10.855,39.513-17.522a197.83,197.83,0,0,0,17.255-10.192,5.331,5.331,0,0,1,7.353,1.667c1.983,4.109,2.417,8.808,2.451,13.314-.244,20.28-11.133,38.813-26.591,51.554C151.376,207,123.169,212.526,99.45,203.282c-14.9-5.779-29.4-16.973-34.013-32.882a5.59,5.59,0,0,1,5.811-6.872Z"/>
    <circle cx="71.8" cy="111.749" r="23.757" fill="#fff"/>
    <circle cx="152.7" cy="80.826" r="37.243" fill="#fff"/>
    <circle cx="146.44" cy="74.406" r="13.157"/>
    <g>
      <circle cx="71.8" cy="111.749" r="14.544"/>
      <circle cx="66.709" cy="109.04" r="4.631" fill="#fff"/>
      <circle cx="71.671" cy="117.641" r="2.977" fill="#fff"/>
    </g>
    <circle cx="147.346" cy="69.515" r="4.561" fill="#fff"/>
    <circle cx="153.918" cy="76.757" r="2.932" fill="#fff"/>
  </g>
</svg> 