<svg xmlns="http://www.w3.org/2000/svg" width="245.747" height="254.19" viewBox="0 0 245.747 254.19">
  <g>
    <g>
      <circle cx="122.873" cy="122.873" r="122.873" fill="#c48400"/>
      <circle cx="122.873" cy="122.873" r="113.424" fill="#ffac00"/>
      <circle cx="122.873" cy="122.873" r="102.477" fill="#ffde00"/>
    </g>
    <path d="M71.248,163.528c6.874-.55,12.665-1.321,19.174-2.34,14.376-2.317,27.13-4.724,40.427-9.094,11.968-3.809,26.9-10.855,39.513-17.522a197.83,197.83,0,0,0,17.255-10.192,5.331,5.331,0,0,1,7.353,1.667c1.983,4.109,2.417,8.808,2.451,13.314-.244,20.28-11.133,38.813-26.591,51.554C151.376,207,123.169,212.526,99.45,203.282c-14.9-5.779-29.4-16.973-34.013-32.882a5.59,5.59,0,0,1,5.811-6.872Z"/>
    <circle cx="71.8" cy="111.749" r="23.757" fill="#fff"/>
    <circle cx="152.7" cy="80.826" r="37.243" fill="#fff"/>
    <circle cx="146.44" cy="74.406" r="13.157"/>
    <g id="tongue">
      <path id="tongue-main" d="M158.421,145.86l-2.78,78.01a31.426,31.426,0,0,1-32.52,30.3l-6.81-.25a31.42,31.42,0,0,1-30.29-32.53l1.99-55.95a283.843,283.843,0,0,0,30.19-5.16q2.805-.66,5.62-1.43q1.4-.375,2.79-.78C136.181,155.4,147.681,150.75,158.421,145.86Z" fill="#ff52a0"/>
      <path id="tongue-accent" d="M120.84,215.814a.674.674,0,0,1-1.33.211,153.093,153.093,0,0,1-1.17-52.961q2.8-.66,5.62-1.429A149.659,149.659,0,0,0,120.84,215.814Z" fill="#cc4280"/>
    </g>
    <g>
      <circle cx="71.8" cy="111.749" r="14.544"/>
      <circle cx="66.709" cy="109.04" r="4.631" fill="#fff"/>
      <circle cx="71.671" cy="117.641" r="2.977" fill="#fff"/>
    </g>
    <circle cx="147.346" cy="69.515" r="4.561" fill="#fff"/>
    <circle cx="153.918" cy="76.757" r="2.932" fill="#fff"/>
  </g>
</svg>